<svg xmlns="http://www.w3.org/2000/svg" xmlns:xlink="http://www.w3.org/1999/xlink" width="96.758" height="98.865" viewBox="0 0 96.758 98.865"><defs><clipPath id="a"><rect width="72.005" height="76.163" fill="none"/></clipPath><clipPath id="c"><path d="M4.344,36A31.659,31.659,0,1,1,36,67.662,31.659,31.659,0,0,1,4.344,36M36,0a36,36,0,1,0,36,36A36,36,0,0,0,36,0Z" fill="none"/></clipPath><linearGradient id="d" x1="0.129" y1="0.914" x2="0.135" y2="0.914" gradientUnits="objectBoundingBox"><stop offset="0" stop-color="#ffa100"/><stop offset="1" stop-color="#ffd800"/></linearGradient><clipPath id="f"><path d="M40.821,23.178a.789.789,0,0,0-.741.622L35.626,47.058a.8.8,0,0,1-.508.58L29.424,49.7a.8.8,0,0,0-.508.577l-.957,4.879a.514.514,0,0,0,.732.577l4.762-1.729a.514.514,0,0,1,.732.574L32.226,64.812a.5.5,0,0,0,.5.616H62.107a.789.789,0,0,0,.741-.62l1.368-6.967a.5.5,0,0,0-.5-.619H45.074a.5.5,0,0,1-.5-.62l1.318-6.716a.8.8,0,0,1,.507-.576l5.36-1.946a.8.8,0,0,0,.507-.577l.957-4.879a.514.514,0,0,0-.732-.577L48.1,42.925a.515.515,0,0,1-.732-.577l3.64-18.55a.5.5,0,0,0-.5-.619Z" transform="translate(-27.947 -23.178)" fill="none"/></clipPath><linearGradient id="g" x1="-0.456" y1="1.475" x2="-0.439" y2="1.475" xlink:href="#d"/><clipPath id="i"><rect width="62.37" height="36.003" fill="none"/></clipPath></defs><g transform="matrix(0.914, -0.407, 0.407, 0.914, 0, 29.287)"><g clip-path="url(#a)"><g transform="translate(0 0)"><g clip-path="url(#a)"><path d="M72.005,42.972a36,36,0,1,1-36-36,36,36,0,0,1,36,36" transform="translate(0 -2.812)" fill="#e18a04"/><path d="M72.005,36A36,36,0,1,1,36,0a36,36,0,0,1,36,36" transform="translate(0 0)" fill="#e4a020"/><path d="M36,3.217a36,36,0,1,0,36,36,36,36,0,0,0-36-36m0,67.662A31.659,31.659,0,1,1,67.662,39.22,31.659,31.659,0,0,1,36,70.879" transform="translate(0 -1.298)" fill="#e18a04"/></g></g><g clip-path="url(#c)"><rect width="97.028" height="97.028" transform="matrix(0.459, -0.888, 0.888, 0.459, -29.37, 56.825)" fill="url(#d)"/></g><g transform="translate(0 0)"><g clip-path="url(#a)"><path d="M46.576,59.1l1.318-6.716a.8.8,0,0,1,.508-.577l5.359-1.945a.8.8,0,0,0,.508-.577l.957-4.879a.514.514,0,0,0-.731-.577L50.1,45.424a.514.514,0,0,1-.732-.577l3.64-18.55a.494.494,0,0,0-.5-.619H42.821a.791.791,0,0,0-.741.622L37.626,49.558a.8.8,0,0,1-.508.58L31.423,52.2a.8.8,0,0,0-.507.577l-.957,4.879a.514.514,0,0,0,.732.577l4.762-1.729a.514.514,0,0,1,.732.574L34.226,67.311a.494.494,0,0,0,.5.617H64.107a.791.791,0,0,0,.741-.62l1.367-6.967a.5.5,0,0,0-.5-.62H47.074a.5.5,0,0,1-.5-.619" transform="translate(-12.084 -10.362)" fill="#e18a04"/></g></g><g transform="translate(16.669 13.825)"><g clip-path="url(#f)"><rect width="36.409" height="42.25" transform="translate(-0.073 0)" fill="url(#g)"/></g></g><g transform="translate(0 0)"><g clip-path="url(#a)"><g transform="translate(4.818)" opacity="0.15" style="mix-blend-mode:overlay;isolation:isolate"><g clip-path="url(#i)"><path d="M39.262,36A35.988,35.988,0,0,0,70.447,18a36.013,36.013,0,0,0-62.37,0A35.988,35.988,0,0,0,39.262,36" transform="translate(-8.077 0)" fill="#fff"/></g></g></g></g></g></g></svg>