<svg xmlns="http://www.w3.org/2000/svg" xmlns:xlink="http://www.w3.org/1999/xlink" width="92.878" height="95.456" viewBox="0 0 92.878 95.456"><defs><clipPath id="a"><rect width="72.005" height="76.163" fill="none"/></clipPath><clipPath id="c"><path d="M4.344,36A31.659,31.659,0,1,1,36,67.662,31.659,31.659,0,0,1,4.344,36M36,0a36,36,0,1,0,36,36A36,36,0,0,0,36,0Z" fill="none"/></clipPath><linearGradient id="d" x1="0.129" y1="0.914" x2="0.135" y2="0.914" gradientUnits="objectBoundingBox"><stop offset="0" stop-color="#ffa100"/><stop offset="1" stop-color="#ffd800"/></linearGradient><clipPath id="f"><path d="M49.542,59.815a8.367,8.367,0,0,1-5.6-1.967A7.907,7.907,0,0,1,41.1,52.235a8.033,8.033,0,0,1,6.6-8.5,9.835,9.835,0,0,1,1.609-.138,8.01,8.01,0,0,1,6.5,3.4,6.4,6.4,0,0,1,1.352,3.554c.081.964.123,1.964.162,2.936h0V56.1c0,.753,0,1.505,0,2.259A1.3,1.3,0,0,1,55.9,59.816c-1.14.014-2.221.021-3.259.021-1.076,0-2.1-.007-3.1-.023M26.823,30.073a4.527,4.527,0,0,0-.365,5.065,4.354,4.354,0,0,0,4.36,2.234A1.8,1.8,0,0,1,32.451,38l1.359,1.394a8.809,8.809,0,0,1,.908,1,4.626,4.626,0,0,1,.439,4.966A15.415,15.415,0,0,0,42.6,65.581a13.4,13.4,0,0,0,5.524,1.472c1.464.048,2.938.036,4.363.026l.17,0,1.674.01q.9,0,1.8-.007c1.344-.008,2.732-.016,4.085.017h.1a4.183,4.183,0,0,0,2.954-1.229,4.512,4.512,0,0,0,1.354-3.182c-.02-1.783-.016-3.565-.012-5.348q0-1.274,0-2.549l0-.774a30.271,30.271,0,0,0-.226-4.669,14.992,14.992,0,0,0-4.095-8.28,15.426,15.426,0,0,0-17.341-3.449,5.433,5.433,0,0,1-1.857.528,4.758,4.758,0,0,1-3.829-1.48l-2-2.012a1.172,1.172,0,0,1-.4-.948l.01-.228a7.675,7.675,0,0,0,0-1.037,4.521,4.521,0,0,0-8.059-2.369" transform="translate(-25.85 -28.343)" fill="none"/></clipPath><linearGradient id="g" x1="-0.166" y1="1.264" x2="-0.155" y2="1.264" xlink:href="#d"/><clipPath id="i"><rect width="62.37" height="36.003" fill="none"/></clipPath></defs><g transform="translate(24.796) rotate(19)"><g clip-path="url(#a)"><g transform="translate(0 0)"><g clip-path="url(#a)"><path d="M72.005,42.972a36,36,0,1,1-36-36,36,36,0,0,1,36,36" transform="translate(0 -2.812)" fill="#e18a04"/><path d="M72.005,36A36,36,0,1,1,36,0a36,36,0,0,1,36,36" transform="translate(0 0)" fill="#e4a020"/><path d="M36,3.217a36,36,0,1,0,36,36,36,36,0,0,0-36-36m0,67.662A31.659,31.659,0,1,1,67.662,39.22,31.659,31.659,0,0,1,36,70.879" transform="translate(0 -1.298)" fill="#e18a04"/></g></g><g clip-path="url(#c)"><rect width="97.028" height="97.028" transform="translate(-29.37 56.825) rotate(-62.668)" fill="url(#d)"/></g><g transform="translate(0 0)"><g clip-path="url(#a)"><path d="M64.62,61.083q0-1.274,0-2.549l0-.774A30.348,30.348,0,0,0,64.4,53.09,14.99,14.99,0,0,0,60.3,44.81a15.426,15.426,0,0,0-17.34-3.449,5.418,5.418,0,0,1-1.857.528,4.757,4.757,0,0,1-3.828-1.48L35.273,38.4a1.169,1.169,0,0,1-.4-.948l.01-.229a7.767,7.767,0,0,0,0-1.037,4.526,4.526,0,1,0-8.425,2.7,4.354,4.354,0,0,0,4.36,2.234,1.8,1.8,0,0,1,1.634.627l1.359,1.394a8.752,8.752,0,0,1,.907,1,4.627,4.627,0,0,1,.44,4.966A15.413,15.413,0,0,0,42.6,69.323,13.389,13.389,0,0,0,48.129,70.8c1.464.048,2.938.036,4.363.026l.17,0,1.674.01q.9,0,1.8-.007c1.343-.008,2.732-.015,4.085.018h.1a4.183,4.183,0,0,0,2.954-1.229,4.51,4.51,0,0,0,1.354-3.182c-.02-1.783-.016-3.565-.012-5.348m-7.3-1.241c0,.753,0,1.506,0,2.259A1.305,1.305,0,0,1,55.9,63.558c-2.321.029-4.4.028-6.36,0a8.363,8.363,0,0,1-5.6-1.966A7.907,7.907,0,0,1,41.1,55.977a8.034,8.034,0,0,1,6.6-8.5,9.908,9.908,0,0,1,1.609-.138,8.012,8.012,0,0,1,6.5,3.4,6.4,6.4,0,0,1,1.351,3.554c.081.964.124,1.964.162,2.937h0Z" transform="translate(-10.431 -12.947)" fill="#e18a04"/></g></g><g transform="translate(15.419 16.906)"><g clip-path="url(#f)"><rect width="52.024" height="52.187" transform="translate(-15.646 31.24) rotate(-63.869)" fill="url(#g)"/></g></g><g transform="translate(0 0)"><g clip-path="url(#a)"><g transform="translate(4.818)" opacity="0.15" style="mix-blend-mode:overlay;isolation:isolate"><g clip-path="url(#i)"><path d="M39.262,36A35.988,35.988,0,0,0,70.447,18a36.013,36.013,0,0,0-62.37,0A35.988,35.988,0,0,0,39.262,36" transform="translate(-8.077 0)" fill="#fff"/></g></g></g></g></g></g></svg>