<svg xmlns="http://www.w3.org/2000/svg" xmlns:xlink="http://www.w3.org/1999/xlink" width="100.44" height="101.961" viewBox="0 0 100.44 101.961"><defs><clipPath id="a"><rect width="72.005" height="76.163" fill="none"/></clipPath><clipPath id="c"><path d="M4.344,36A31.659,31.659,0,1,1,36,67.662,31.659,31.659,0,0,1,4.344,36M36,0a36,36,0,1,0,36,36A36,36,0,0,0,36,0Z" fill="none"/></clipPath><linearGradient id="d" x1="0.129" y1="0.914" x2="0.135" y2="0.914" gradientUnits="objectBoundingBox"><stop offset="0" stop-color="#ffa100"/><stop offset="1" stop-color="#ffd800"/></linearGradient><clipPath id="f"><path d="M59.64,35.536h-26.1a.616.616,0,0,0-.582.412l-2.308,6.544a.617.617,0,0,0,.582.823H57.547a.617.617,0,0,1,.582.823L53.251,58.075a.619.619,0,0,1-.583.412H25.48a.618.618,0,0,0-.583.412L22.59,65.442a.617.617,0,0,0,.583.823H51.546c4.3,0,9.007-3.482,10.522-7.779l5.313-15.172c1.515-4.3-.74-7.779-5.035-7.779Z" transform="translate(-22.554 -35.536)" fill="none"/></clipPath><linearGradient id="g" x1="-0.176" y1="1.22" x2="-0.165" y2="1.22" xlink:href="#d"/><clipPath id="h"><path d="M23.385,54.766a.617.617,0,0,0-.582.412l-2.249,6.374a.618.618,0,0,0,.582.823H34.793a.618.618,0,0,0,.582-.412l2.248-6.375a.617.617,0,0,0-.582-.823Z" transform="translate(-20.519 -54.766)" fill="none"/></clipPath><linearGradient id="i" x1="-0.699" y1="2.716" x2="-0.664" y2="2.716" xlink:href="#d"/><clipPath id="k"><rect width="62.37" height="36.003" fill="none"/></clipPath></defs><g transform="translate(0 36.003) rotate(-30)"><g clip-path="url(#a)"><g transform="translate(0 0)"><g clip-path="url(#a)"><path d="M72.005,42.972a36,36,0,1,1-36-36,36,36,0,0,1,36,36" transform="translate(0 -2.813)" fill="#e18a04"/><path d="M72.005,36A36,36,0,1,1,36,0a36,36,0,0,1,36,36" transform="translate(0 0)" fill="#e4a020"/><path d="M36,3.217a36,36,0,1,0,36,36,36,36,0,0,0-36-36m0,67.662A31.659,31.659,0,1,1,67.662,39.22,31.659,31.659,0,0,1,36,70.879" transform="translate(0 -1.298)" fill="#e18a04"/></g></g><g clip-path="url(#c)"><rect width="97.028" height="97.028" transform="matrix(0.459, -0.888, 0.888, 0.459, -29.37, 56.825)" fill="url(#d)"/></g><g transform="translate(0 0)"><g clip-path="url(#a)"><path d="M64.047,38.088H35.238a.617.617,0,0,0-.582.412l-2.308,6.544a.617.617,0,0,0,.582.823H59.248a.617.617,0,0,1,.582.823L54.952,60.626a.617.617,0,0,1-.582.412H27.182a.619.619,0,0,0-.583.412l-2.307,6.544a.617.617,0,0,0,.582.823H53.247c4.3,0,9.007-3.483,10.522-7.779l5.313-15.172c1.515-4.3-.74-7.779-5.035-7.779" transform="translate(-9.788 -15.37)" fill="#e18a04"/><path d="M37.076,64.516l2.248-6.375a.617.617,0,0,0-.582-.823H25.086a.617.617,0,0,0-.582.412l-2.248,6.375a.617.617,0,0,0,.582.823H36.494a.617.617,0,0,0,.582-.412" transform="translate(-8.967 -23.13)" fill="#e18a04"/></g></g><g transform="translate(13.453 21.196)"><g clip-path="url(#f)"><rect width="54.082" height="54.974" transform="translate(-15.421 16.598) rotate(-47.302)" fill="url(#g)"/></g></g><g transform="translate(12.239 32.666)"><g clip-path="url(#h)"><rect width="17.359" height="17.913" transform="matrix(0.678, -0.735, 0.735, 0.678, -3.898, 4.11)" fill="url(#i)"/></g></g><g transform="translate(0 0)"><g clip-path="url(#a)"><g transform="translate(4.818)" opacity="0.15" style="mix-blend-mode:overlay;isolation:isolate"><g clip-path="url(#k)"><path d="M39.262,36A35.988,35.988,0,0,0,70.447,18a36.013,36.013,0,0,0-62.37,0A35.988,35.988,0,0,0,39.262,36" transform="translate(-8.077 0)" fill="#fff"/></g></g></g></g></g></g></svg>