<svg xmlns="http://www.w3.org/2000/svg" xmlns:xlink="http://www.w3.org/1999/xlink" width="103.406" height="102.285" viewBox="0 0 103.406 102.285"><defs><clipPath id="a"><rect width="72.005" height="76.163" fill="none"/></clipPath><clipPath id="c"><path d="M4.344,36A31.659,31.659,0,1,1,36,67.662,31.659,31.659,0,0,1,4.344,36M36,0a36,36,0,1,0,36,36A36,36,0,0,0,36,0Z" fill="none"/></clipPath><linearGradient id="d" x1="0.129" y1="0.914" x2="0.135" y2="0.914" gradientUnits="objectBoundingBox"><stop offset="0" stop-color="#ffa100"/><stop offset="1" stop-color="#ffd800"/></linearGradient><clipPath id="f"><rect width="62.37" height="36.003" fill="none"/></clipPath><clipPath id="g"><path d="M59.522,29.985Q52.108,37.392,44.7,44.8c-1.011,1.01-.781.99-1.742.03q-7.417-7.4-14.826-14.815a2.105,2.105,0,0,0-1-.753c-.014.494-.036.9-.036,1.308,0,6.32,0,19.8,0,26.116,0,1-.013,1.01-.981,1.014q-1.837.008-3.673,0H20.524c-.281,0-.562,0-.842.017-.245.014-.435.137-.318.4.644,1.438,1.3,2.87,1.964,4.3.2.44.558.524,1.034.52,2.169-.018,4.338-.017,6.507-.016q1.276,0,2.551,0c1.267,0,1.27,0,1.27-1.265,0-3.652,0-12.671,0-16.322,0-.37.024-.74.044-1.3.407.372.67.593.912.835q4.695,4.688,9.384,9.383c.777.777.781.775,1.56,0q4.69-4.693,9.381-9.384c.263-.263.543-.509.87-.815a2.07,2.07,0,0,1,.2,1.231c.006,3.652,0,12.671,0,16.323,0,.246.008.491,0,.737-.011.387.153.59.559.583s.842,0,1.263,0h2.268q3.079,0,6.158,0c.4,0,.772.016.975-.43.625-1.372,1.283-2.729,1.881-4.113.246-.568.151-.67-.493-.676-.962-.008-1.925-.007-2.888-.005-.863,0-1.726,0-2.589,0-.2,0-.376,0-.531,0-1.285.013-1.117.027-1.118-1.6-.007-6.144,0-19.446-.008-25.59a1.928,1.928,0,0,0-.2-1.278c-.3.284-.559.511-.8.753" transform="translate(-19.329 -29.232)" fill="none"/></clipPath><linearGradient id="h" x1="-0.155" y1="1.203" x2="-0.144" y2="1.203" xlink:href="#d"/></defs><g transform="translate(0 59.695) rotate(-56)"><g clip-path="url(#a)"><g transform="translate(0 0)"><g clip-path="url(#a)"><path d="M72.005,42.972a36,36,0,1,1-36-36,36,36,0,0,1,36,36" transform="translate(0 -2.812)" fill="#e18a04"/><path d="M72.005,36A36,36,0,1,1,36,0a36,36,0,0,1,36,36" transform="translate(0 0)" fill="#e4a020"/><path d="M36,3.217a36,36,0,1,0,36,36,36,36,0,0,0-36-36m0,67.662A31.659,31.659,0,1,1,67.662,39.22,31.659,31.659,0,0,1,36,70.879" transform="translate(0 -1.298)" fill="#e18a04"/></g></g><g clip-path="url(#c)"><rect width="97.028" height="97.028" transform="matrix(0.459, -0.888, 0.888, 0.459, -29.37, 56.825)" fill="url(#d)"/></g><g transform="translate(0 0)"><g clip-path="url(#a)"><g transform="translate(4.818)" opacity="0.15" style="mix-blend-mode:overlay;isolation:isolate"><g clip-path="url(#f)"><path d="M39.262,36A35.988,35.988,0,0,0,70.447,18a36.013,36.013,0,0,0-62.37,0A35.988,35.988,0,0,0,39.262,36" transform="translate(-8.077 0)" fill="#fff"/></g></g><path d="M32.739,47.034c-.02.562-.045.933-.045,1.3,0,3.652,0,12.671,0,16.322,0,1.262,0,1.264-1.271,1.265-3.019,0-6.039-.011-9.058.015-.476,0-.831-.079-1.034-.52-.661-1.43-1.321-2.861-1.964-4.3-.117-.262.073-.386.318-.4.28-.016.561-.016.842-.016,1.86,0,3.721,0,5.582,0,.969,0,.981-.015.981-1.014,0-6.32,0-19.8,0-26.116,0-.407.021-.814.035-1.308a2.1,2.1,0,0,1,1,.753q7.419,7.4,14.826,14.815c.962.959.731.98,1.742-.03q7.412-7.408,14.825-14.816c.242-.242.5-.469.8-.753a1.926,1.926,0,0,1,.2,1.279c.008,6.144,0,19.446.008,25.59,0,1.826-.209,1.59,1.649,1.6,1.826.011,3.652-.005,5.477.009.644.005.738.109.493.676-.6,1.383-1.256,2.74-1.881,4.112-.2.446-.576.432-.975.431-2.809-.007-5.618,0-8.426,0-.421,0-.842-.01-1.263,0-.405.007-.57-.2-.559-.583.007-.246,0-.491,0-.737,0-3.651,0-12.671,0-16.322a2.074,2.074,0,0,0-.2-1.231c-.328.306-.607.552-.87.815q-4.693,4.69-9.381,9.384c-.78.78-.783.781-1.56,0q-4.693-4.691-9.384-9.384c-.242-.242-.5-.463-.911-.834" transform="translate(-7.8 -13.006)" fill="#e18a04"/></g></g><g transform="translate(11.529 17.436)"><g clip-path="url(#g)"><rect width="54.994" height="59.579" transform="translate(-15.451 23.779) rotate(-57.124)" fill="url(#h)"/></g></g></g></g></svg>