<svg xmlns="http://www.w3.org/2000/svg" xmlns:xlink="http://www.w3.org/1999/xlink" width="96.04" height="98.243" viewBox="0 0 96.04 98.243"><defs><clipPath id="a"><rect width="72.005" height="76.163" fill="none"/></clipPath><clipPath id="c"><path d="M4.344,36A31.659,31.659,0,1,1,36,67.662,31.659,31.659,0,0,1,4.344,36M36,0a36,36,0,1,0,36,36A36,36,0,0,0,36,0Z" fill="none"/></clipPath><linearGradient id="d" x1="0.129" y1="0.914" x2="0.135" y2="0.914" gradientUnits="objectBoundingBox"><stop offset="0" stop-color="#ffa100"/><stop offset="1" stop-color="#ffd800"/></linearGradient><clipPath id="f"><path d="M45.943,58.217V35.4a.846.846,0,0,1,.846-.846h4.5c7.341,0,11.067,4.7,11.067,12.255S58.628,59.062,51.287,59.062h-4.5a.846.846,0,0,1-.846-.846m1.866-30.3H34.366a.846.846,0,0,0-.846.846v4.948a.846.846,0,0,0,.846.846h3.822a.846.846,0,0,1,.846.846V58.217a.846.846,0,0,1-.846.846H34.366a.846.846,0,0,0-.846.846v4.948a.846.846,0,0,0,.846.846H51.287c10.8,0,18.625-7.018,18.625-18.894S62.083,27.913,51.287,27.913Z" transform="translate(-33.52 -27.913)" fill="none"/></clipPath><linearGradient id="g" x1="-0.253" y1="1.309" x2="-0.241" y2="1.309" xlink:href="#d"/><clipPath id="i"><rect width="62.37" height="36.003" fill="none"/></clipPath></defs><g transform="matrix(0.921, 0.391, -0.391, 0.921, 29.759, 0)"><g clip-path="url(#a)"><g transform="translate(0 0)"><g clip-path="url(#a)"><path d="M72.005,42.972a36,36,0,1,1-36-36,36,36,0,0,1,36,36" transform="translate(0 -2.812)" fill="#e18a04"/><path d="M72.005,36A36,36,0,1,1,36,0a36,36,0,0,1,36,36" transform="translate(0 0)" fill="#e4a020"/><path d="M36,3.217a36,36,0,1,0,36,36,36,36,0,0,0-36-36m0,67.662A31.659,31.659,0,1,1,67.662,39.22,31.659,31.659,0,0,1,36,70.879" transform="translate(0 -1.298)" fill="#e18a04"/></g></g><g clip-path="url(#c)"><rect width="97.028" height="97.028" transform="translate(-29.37 56.825) rotate(-62.668)" fill="url(#d)"/></g><g transform="translate(0 0)"><g clip-path="url(#a)"><path d="M51.287,31.6H34.366a.846.846,0,0,0-.846.846v4.948a.846.846,0,0,0,.846.846h3.821a.846.846,0,0,1,.846.846V61.9a.846.846,0,0,1-.846.846H34.366a.846.846,0,0,0-.846.846v4.948a.846.846,0,0,0,.846.846H51.287c10.8,0,18.625-7.018,18.625-18.895S62.084,31.6,51.287,31.6m0,31.149h-4.5a.846.846,0,0,1-.846-.846V39.086a.846.846,0,0,1,.846-.846h4.5c7.341,0,11.068,4.7,11.068,12.254S58.628,62.749,51.287,62.749" transform="translate(-13.526 -12.752)" fill="#e18a04"/></g></g><g transform="translate(19.994 16.649)"><g clip-path="url(#f)"><rect width="50.725" height="50.185" transform="translate(-16.069 28.834) rotate(-60.869)" fill="url(#g)"/></g></g><g transform="translate(0 0)"><g clip-path="url(#a)"><g transform="translate(4.818)" opacity="0.15" style="mix-blend-mode:overlay;isolation:isolate"><g clip-path="url(#i)"><path d="M39.262,36A35.988,35.988,0,0,0,70.447,18a36.013,36.013,0,0,0-62.37,0A35.988,35.988,0,0,0,39.262,36" transform="translate(-8.077 0)" fill="#fff"/></g></g></g></g></g></g></svg>