<svg xmlns="http://www.w3.org/2000/svg" xmlns:xlink="http://www.w3.org/1999/xlink" width="632" height="151.598" viewBox="0 0 632 151.598">
  <defs>
    <clipPath id="clip-path">
      <rect id="Rectángulo_75224" data-name="Rectángulo 75224" width="114.489" height="114.489" fill="none"/>
    </clipPath>
    <clipPath id="clip-path-4">
      <path id="Trazado_228509" data-name="Trazado 228509" d="M114.489,57.245A57.244,57.244,0,1,1,57.244,0a57.245,57.245,0,0,1,57.245,57.245" fill="none"/>
    </clipPath>
    <radialGradient id="radial-gradient" cx="0.5" cy="0.5" r="0.5" gradientTransform="matrix(1, 0, 0, -1, 0, 2)" gradientUnits="objectBoundingBox">
      <stop offset="0" stop-color="#1b1464"/>
      <stop offset="0.106" stop-color="#1b1464"/>
      <stop offset="0.243" stop-color="#534d8a"/>
      <stop offset="0.386" stop-color="#8683ad"/>
      <stop offset="0.527" stop-color="#b1afca"/>
      <stop offset="0.662" stop-color="#d3d2e1"/>
      <stop offset="0.789" stop-color="#ebeaf1"/>
      <stop offset="0.905" stop-color="#f9f9fb"/>
      <stop offset="1" stop-color="#fff"/>
    </radialGradient>
    <radialGradient id="radial-gradient-2" xlink:href="#radial-gradient"/>
    <clipPath id="clip-path-9">
      <rect id="Rectángulo_75227" data-name="Rectángulo 75227" width="17.253" height="28.122" transform="translate(44.629 13.302)" fill="none"/>
    </clipPath>
    <clipPath id="clip-path-10">
      <rect id="Rectángulo_75228" data-name="Rectángulo 75228" width="17.264" height="23.885" transform="translate(44.629 44.637)" fill="none"/>
    </clipPath>
    <clipPath id="clip-path-11">
      <rect id="Rectángulo_75229" data-name="Rectángulo 75229" width="17.253" height="17.722" transform="translate(44.629 33.72)" fill="none"/>
    </clipPath>
    <clipPath id="clip-path-12">
      <rect id="Rectángulo_75230" data-name="Rectángulo 75230" width="17.255" height="17.722" transform="translate(27.373 33.72)" fill="none"/>
    </clipPath>
    <clipPath id="clip-path-17">
      <rect id="Rectángulo_66713" data-name="Rectángulo 66713" width="13.655" height="15.443" fill="none"/>
    </clipPath>
  </defs>
  <g id="Grupo_234516" data-name="Grupo 234516" transform="translate(-541 -2957.484)">
    <rect id="Rectángulo_4912" data-name="Rectángulo 4912" width="632" height="100.767" rx="19" transform="translate(541 3008.315)" fill="#d4e0f7"/>
    <g id="Grupo_234485" data-name="Grupo 234485" transform="translate(1023 2957.484)">
      <g id="Grupo_234484" data-name="Grupo 234484" clip-path="url(#clip-path)">
        <g id="Grupo_234483" data-name="Grupo 234483">
          <g id="Grupo_234482" data-name="Grupo 234482" clip-path="url(#clip-path)">
            <g id="Grupo_234481" data-name="Grupo 234481" opacity="0.5" style="mix-blend-mode: multiply;isolation: isolate">
              <g id="Grupo_234480" data-name="Grupo 234480">
                <g id="Grupo_234479" data-name="Grupo 234479" clip-path="url(#clip-path)">
                  <g id="Grupo_234478" data-name="Grupo 234478">
                    <g id="Grupo_234477" data-name="Grupo 234477" clip-path="url(#clip-path-4)">
                      <rect id="Rectángulo_75221" data-name="Rectángulo 75221" width="114.489" height="114.489" transform="translate(0)" fill="url(#radial-gradient)"/>
                    </g>
                  </g>
                </g>
              </g>
            </g>
            <path id="Trazado_228510" data-name="Trazado 228510" d="M79.106,40.918A36.821,36.821,0,1,1,42.285,4.1,36.821,36.821,0,0,1,79.106,40.918" fill="#23292f"/>
            <path id="Trazado_228511" data-name="Trazado 228511" d="M60.515,19.578h7.449l-15.5,15.351a14.485,14.485,0,0,1-20.334,0L16.616,19.578h7.459L35.852,31.235a9.163,9.163,0,0,0,12.875,0Z" fill="#fff"/>
            <path id="Trazado_228512" data-name="Trazado 228512" d="M23.974,62.259H16.515l15.6-15.442a14.487,14.487,0,0,1,20.334,0l15.6,15.442H60.6L48.727,50.5a9.161,9.161,0,0,0-12.875,0Z" fill="#fff"/>
          </g>
        </g>
      </g>
    </g>
    <g id="Grupo_234506" data-name="Grupo 234506" transform="translate(813.511 2957.484)">
      <g id="Grupo_234505" data-name="Grupo 234505" clip-path="url(#clip-path)">
        <g id="Grupo_234504" data-name="Grupo 234504">
          <g id="Grupo_234503" data-name="Grupo 234503" clip-path="url(#clip-path)">
            <g id="Grupo_234490" data-name="Grupo 234490" opacity="0.5" style="mix-blend-mode: multiply;isolation: isolate">
              <g id="Grupo_234489" data-name="Grupo 234489">
                <g id="Grupo_234488" data-name="Grupo 234488" clip-path="url(#clip-path)">
                  <g id="Grupo_234487" data-name="Grupo 234487">
                    <g id="Grupo_234486" data-name="Grupo 234486" clip-path="url(#clip-path-4)">
                      <rect id="Rectángulo_75225" data-name="Rectángulo 75225" width="114.489" height="114.489" transform="translate(0 0)" fill="url(#radial-gradient-2)"/>
                    </g>
                  </g>
                </g>
              </g>
            </g>
            <path id="Trazado_228514" data-name="Trazado 228514" d="M43.483,4.1A36.821,36.821,0,1,1,6.662,40.918,36.821,36.821,0,0,1,43.483,4.1" fill="#627eea" fill-rule="evenodd"/>
            <g id="Grupo_234493" data-name="Grupo 234493" opacity="0.602">
              <g id="Grupo_234492" data-name="Grupo 234492">
                <g id="Grupo_234491" data-name="Grupo 234491" clip-path="url(#clip-path-9)">
                  <path id="Trazado_228515" data-name="Trazado 228515" d="M44.629,13.3V33.715l17.253,7.709Z" fill="#fff"/>
                </g>
              </g>
            </g>
            <path id="Trazado_228516" data-name="Trazado 228516" d="M44.629,13.3,27.374,41.424l17.255-7.709Z" fill="#fff"/>
            <g id="Grupo_234496" data-name="Grupo 234496" opacity="0.602">
              <g id="Grupo_234495" data-name="Grupo 234495">
                <g id="Grupo_234494" data-name="Grupo 234494" clip-path="url(#clip-path-10)">
                  <path id="Trazado_228517" data-name="Trazado 228517" d="M44.629,54.652v13.87L61.893,44.637Z" fill="#fff"/>
                </g>
              </g>
            </g>
            <path id="Trazado_228518" data-name="Trazado 228518" d="M44.629,68.522V54.65L27.374,44.637Z" fill="#fff"/>
            <g id="Grupo_234499" data-name="Grupo 234499" opacity="0.2">
              <g id="Grupo_234498" data-name="Grupo 234498">
                <g id="Grupo_234497" data-name="Grupo 234497" clip-path="url(#clip-path-11)">
                  <path id="Trazado_228519" data-name="Trazado 228519" d="M44.629,51.442,61.882,41.424l-17.253-7.7Z" fill="#fff"/>
                </g>
              </g>
            </g>
            <g id="Grupo_234502" data-name="Grupo 234502" opacity="0.602">
              <g id="Grupo_234501" data-name="Grupo 234501">
                <g id="Grupo_234500" data-name="Grupo 234500" clip-path="url(#clip-path-12)">
                  <path id="Trazado_228520" data-name="Trazado 228520" d="M27.373,41.424,44.628,51.443V33.72Z" fill="#fff"/>
                </g>
              </g>
            </g>
          </g>
        </g>
      </g>
    </g>
    <g id="Grupo_234515" data-name="Grupo 234515" transform="translate(611.511 2966.484)">
      <g id="Grupo_234514" data-name="Grupo 234514" transform="translate(-11 -9)" clip-path="url(#clip-path)">
        <g id="Grupo_234513" data-name="Grupo 234513">
          <g id="Grupo_234512" data-name="Grupo 234512" clip-path="url(#clip-path)">
            <g id="Grupo_234511" data-name="Grupo 234511" opacity="0.5" style="mix-blend-mode: multiply;isolation: isolate">
              <g id="Grupo_234510" data-name="Grupo 234510">
                <g id="Grupo_234509" data-name="Grupo 234509" clip-path="url(#clip-path)">
                  <g id="Grupo_234508" data-name="Grupo 234508">
                    <g id="Grupo_234507" data-name="Grupo 234507" clip-path="url(#clip-path-4)">
                      <rect id="Rectángulo_75233" data-name="Rectángulo 75233" width="114.489" height="114.489" transform="translate(0 0)" fill="url(#radial-gradient-2)"/>
                    </g>
                  </g>
                </g>
              </g>
            </g>
            <path id="Trazado_228522" data-name="Trazado 228522" d="M79.5,49.826A36.809,36.809,0,1,1,52.684,5.2,36.813,36.813,0,0,1,79.5,49.826Z" fill="#f7931a"/>
            <path id="Trazado_228523" data-name="Trazado 228523" d="M60.017,35.673c.732-4.9-3-7.534-8.1-9.291l1.654-6.637-4.041-1.007L47.92,25.2c-1.06-.265-2.151-.515-3.235-.762l1.622-6.5-4.038-1.007-1.655,6.635c-.879-.2-1.742-.4-2.58-.606l.005-.021-5.572-1.391-1.075,4.315s3,.687,2.935.729a2.149,2.149,0,0,1,1.882,2.35l-1.89,7.59L31.675,47.119a1.47,1.47,0,0,1-1.851.96c.04.059-2.936-.733-2.936-.733l-2.006,4.626,5.259,1.31c.978.245,1.936.5,2.878.743l-1.671,6.714,4.035,1.007L37.04,55.1c1.1.3,2.171.575,3.218.835l-1.65,6.611,4.04,1.006,1.672-6.7c6.889,1.3,12.07.778,14.249-5.452,1.756-5.016-.087-7.91-3.711-9.8,2.639-.611,4.627-2.347,5.158-5.933ZM50.785,48.616c-1.249,5.017-9.695,2.306-12.435,1.625l2.219-8.893c2.738.683,11.519,2.036,10.218,7.268ZM52.034,35.6c-1.139,4.564-8.17,2.245-10.451,1.677l2.011-8.066c2.282.568,9.627,1.629,8.44,6.389" fill="#fff"/>
          </g>
        </g>
      </g>
    </g>
    <g id="Grupo_234476" data-name="Grupo 234476" transform="translate(18)">
      <rect id="Rectángulo_67395" data-name="Rectángulo 67395" width="134" height="27" transform="translate(568 3054.975)" fill="#fff"/>
      <g id="Grupo_213015" data-name="Grupo 213015" transform="translate(145 1990.396)">
        <path id="Trazado_229858" data-name="Trazado 229858" d="M.461,17,2.438,5.625l3.336.008a3.793,3.793,0,0,1,2.609.781,2.5,2.5,0,0,1,.758,2.18,2.957,2.957,0,0,1-2.055,2.461A2.117,2.117,0,0,1,8.23,12.07a2.839,2.839,0,0,1,.309,1.586A3.318,3.318,0,0,1,7.3,16.1a4.456,4.456,0,0,1-2.891.9Zm2.391-5.32-.711,4.086,2.32.008A2.78,2.78,0,0,0,6.242,15.2a2.218,2.218,0,0,0,.836-1.536,1.821,1.821,0,0,0-.32-1.435,1.745,1.745,0,0,0-1.352-.546Zm.211-1.2,2.117.008a2.727,2.727,0,0,0,1.676-.509,2,2,0,0,0,.8-1.4,1.431,1.431,0,0,0-.324-1.253,2.075,2.075,0,0,0-1.41-.462L3.688,6.852ZM11.516,17H10.109l1.469-8.453h1.406ZM12.68,5.461a.774.774,0,0,1,.6.215.8.8,0,0,1,.238.605.834.834,0,0,1-.836.852.779.779,0,0,1-.6-.211.764.764,0,0,1-.227-.594.886.886,0,0,1,.234-.609A.826.826,0,0,1,12.68,5.461ZM17.563,6.5,17.2,8.547h1.539l-.2,1.117H17.016l-.883,5.258a1.833,1.833,0,0,0-.008.375.6.6,0,0,0,.664.609,4.05,4.05,0,0,0,.688-.078l-.109,1.18a3.847,3.847,0,0,1-1.031.141,1.476,1.476,0,0,1-1.266-.621,2.4,2.4,0,0,1-.328-1.629L15.6,9.664H14.109l.2-1.117H15.8L16.156,6.5Zm4.984,9.484a2.145,2.145,0,0,0,1.367-.441,2.1,2.1,0,0,0,.8-1.2l1.336-.008a3.014,3.014,0,0,1-.637,1.453,3.68,3.68,0,0,1-2.926,1.367,3.017,3.017,0,0,1-1.785-.551,3.084,3.084,0,0,1-1.074-1.492,4.972,4.972,0,0,1-.234-2.152l.039-.391a5.605,5.605,0,0,1,.711-2.18,4.11,4.11,0,0,1,1.469-1.5,3.648,3.648,0,0,1,2-.5,2.857,2.857,0,0,1,2.125.891,3.08,3.08,0,0,1,.8,2.18l-1.32-.008a2.029,2.029,0,0,0-.461-1.34,1.607,1.607,0,0,0-1.2-.543,2.254,2.254,0,0,0-1.832.82,4.3,4.3,0,0,0-.91,2.359l-.023.2a6.776,6.776,0,0,0-.016,1.031,2.355,2.355,0,0,0,.516,1.445A1.656,1.656,0,0,0,22.547,15.984Zm9.328-7.594a3.047,3.047,0,0,1,1.82.578,3.285,3.285,0,0,1,1.121,1.551,4.8,4.8,0,0,1,.246,2.16l-.016.172a5.685,5.685,0,0,1-.734,2.23A4.309,4.309,0,0,1,32.8,16.633a3.7,3.7,0,0,1-2.039.523,3.052,3.052,0,0,1-1.816-.578,3.21,3.21,0,0,1-1.113-1.531,4.931,4.931,0,0,1-.25-2.133,5.76,5.76,0,0,1,.711-2.359,4.409,4.409,0,0,1,1.527-1.621A3.652,3.652,0,0,1,31.875,8.391ZM29,12.922a4.8,4.8,0,0,0,0,1.023,2.507,2.507,0,0,0,.551,1.469,1.653,1.653,0,0,0,1.262.57,2.253,2.253,0,0,0,1.3-.348,2.919,2.919,0,0,0,1-1.121,4.721,4.721,0,0,0,.523-1.664,7.494,7.494,0,0,0,.023-1.211,2.6,2.6,0,0,0-.57-1.492A1.69,1.69,0,0,0,31.82,9.57a2.3,2.3,0,0,0-1.859.859,4.245,4.245,0,0,0-.945,2.313ZM37.641,17H36.234L37.7,8.547h1.406ZM38.8,5.461a.774.774,0,0,1,.6.215.8.8,0,0,1,.238.605.834.834,0,0,1-.836.852.779.779,0,0,1-.6-.211.764.764,0,0,1-.227-.594.886.886,0,0,1,.234-.609A.826.826,0,0,1,38.8,5.461Zm3.953,3.078-.2,1.07a3.333,3.333,0,0,1,2.594-1.219,2.1,2.1,0,0,1,1.766.828,3.217,3.217,0,0,1,.422,2.242L46.414,17H45l.93-5.557a2.962,2.962,0,0,0,.008-.71,1.168,1.168,0,0,0-1.289-1.116,2.661,2.661,0,0,0-2.234,1.358L41.367,17H39.953l1.469-8.453Zm10.555,3.875A14.789,14.789,0,0,1,54.27,8.9,10.894,10.894,0,0,1,55.984,5.98,7.045,7.045,0,0,1,58.25,4.156l.211.969a8.108,8.108,0,0,0-2.105,2.387A12.281,12.281,0,0,0,55,11.012a16.834,16.834,0,0,0-.461,4,8.85,8.85,0,0,0,.418,2.848A4.494,4.494,0,0,0,56.164,19.8l-.352.875a5.641,5.641,0,0,1-2-2.68,10.335,10.335,0,0,1-.629-4.062A12.351,12.351,0,0,1,53.3,12.5ZM58.117,17,60.094,5.625l3.336.008a3.793,3.793,0,0,1,2.609.781,2.5,2.5,0,0,1,.758,2.18,2.957,2.957,0,0,1-2.055,2.461,2.117,2.117,0,0,1,1.145,1.016,2.839,2.839,0,0,1,.309,1.586A3.318,3.318,0,0,1,64.961,16.1a4.456,4.456,0,0,1-2.891.9Zm2.391-5.32L59.8,15.766l2.32.008A2.78,2.78,0,0,0,63.9,15.2a2.218,2.218,0,0,0,.836-1.536,1.821,1.821,0,0,0-.32-1.435,1.745,1.745,0,0,0-1.352-.546Zm.211-1.2,2.117.008a2.727,2.727,0,0,0,1.676-.509,2,2,0,0,0,.8-1.4,1.431,1.431,0,0,0-.324-1.253,2.075,2.075,0,0,0-1.41-.462l-2.234-.008Zm16.32-3.625H73.5L71.742,17H70.281L72.039,6.852H68.5l.219-1.227h8.539Zm8.617,6.523a4.535,4.535,0,0,1-1.6,2.8,4.476,4.476,0,0,1-3.043.984,3.544,3.544,0,0,1-1.844-.52,3.283,3.283,0,0,1-1.227-1.43,5.34,5.34,0,0,1-.484-2.066,6.623,6.623,0,0,1,.055-1.25l.133-.937a7.076,7.076,0,0,1,1.8-4.043,4.544,4.544,0,0,1,3.488-1.441A3.4,3.4,0,0,1,85.477,6.5a4.117,4.117,0,0,1,.992,2.785H85.008q-.1-2.391-1.875-2.578L82.875,6.7a3.019,3.019,0,0,0-2.465,1.1A5.942,5.942,0,0,0,79.133,10.9l-.172,1.18-.047.688a3.867,3.867,0,0,0,.512,2.285,1.929,1.929,0,0,0,1.66.879,2.924,2.924,0,0,0,1.965-.57A3.8,3.8,0,0,0,84.234,13.4Zm5.117-.945a14.5,14.5,0,0,1-.992,3.605A10.841,10.841,0,0,1,88.059,18.9a7.163,7.163,0,0,1-2.223,1.777l-.219-.9Q88.3,17.766,89.2,13.3a16.834,16.834,0,0,0,.344-3.461q-.039-3.352-1.625-4.8l.367-.875a5.179,5.179,0,0,1,1.48,1.621,7.645,7.645,0,0,1,.891,2.352,12.043,12.043,0,0,1,.254,2.777,13.344,13.344,0,0,1-.117,1.43Z" transform="translate(454.787 1068.578)" fill="#12263f"/>
      </g>
      <rect id="Rectángulo_67396" data-name="Rectángulo 67396" width="150" height="27" transform="translate(767 3054.975)" fill="#fff"/>
      <rect id="Rectángulo_75220" data-name="Rectángulo 75220" width="127" height="27" transform="translate(983.213 3054.975)" fill="#fff"/>
      <path id="Trazado_229857" data-name="Trazado 229857" d="M7.625,11.742H2.844l-.7,4.031H7.7L7.484,17H.461L2.438,5.625H9.383L9.164,6.852H3.688l-.633,3.664H7.836ZM12.875,6.5l-.359,2.047h1.539l-.2,1.117H12.328l-.883,5.258a1.833,1.833,0,0,0-.008.375.6.6,0,0,0,.664.609,4.05,4.05,0,0,0,.688-.078l-.109,1.18a3.847,3.847,0,0,1-1.031.141,1.476,1.476,0,0,1-1.266-.621,2.4,2.4,0,0,1-.328-1.629l.859-5.234H9.422l.2-1.117h1.492L11.469,6.5ZM16.93,9.578A3.275,3.275,0,0,1,19.484,8.4a2.058,2.058,0,0,1,1.762.816,3.217,3.217,0,0,1,.426,2.246L20.75,17H19.336l.93-5.562a2.968,2.968,0,0,0,.008-.711,1.168,1.168,0,0,0-1.289-1.117,2.6,2.6,0,0,0-2.234,1.359L15.7,17H14.289L16.375,5h1.414Zm9.641,7.578A3.048,3.048,0,0,1,24.1,15.992a4.006,4.006,0,0,1-.75-2.9l.039-.336a5.624,5.624,0,0,1,.746-2.3,4.339,4.339,0,0,1,1.5-1.566,3.491,3.491,0,0,1,1.906-.5,2.688,2.688,0,0,1,2.047.867,3.566,3.566,0,0,1,.813,2.266,6.621,6.621,0,0,1-.031,1.016l-.086.648H24.758a2.856,2.856,0,0,0,.379,1.953,1.8,1.8,0,0,0,1.551.836A3.007,3.007,0,0,0,29,14.852l.813.688a3.718,3.718,0,0,1-1.371,1.2A3.886,3.886,0,0,1,26.57,17.156Zm.9-7.586a2.066,2.066,0,0,0-1.527.594A4.22,4.22,0,0,0,24.906,12l4.109.008.031-.125a2.313,2.313,0,0,0-.316-1.637A1.488,1.488,0,0,0,27.469,9.57Zm9,.266-.664-.07a2.42,2.42,0,0,0-2.141,1.227L32.625,17H31.211L32.68,8.547l1.367-.008-.211.984a2.527,2.527,0,0,1,2.117-1.148,2.594,2.594,0,0,1,.672.117Zm3.727,7.32a3.048,3.048,0,0,1-2.469-1.164,4.006,4.006,0,0,1-.75-2.9l.039-.336a5.624,5.624,0,0,1,.746-2.3,4.339,4.339,0,0,1,1.5-1.566,3.491,3.491,0,0,1,1.906-.5,2.688,2.688,0,0,1,2.047.867,3.566,3.566,0,0,1,.813,2.266,6.621,6.621,0,0,1-.031,1.016l-.086.648H38.383a2.856,2.856,0,0,0,.379,1.953,1.8,1.8,0,0,0,1.551.836,3.007,3.007,0,0,0,2.313-1.125l.813.688a3.718,3.718,0,0,1-1.371,1.2A3.886,3.886,0,0,1,40.2,17.156Zm.9-7.586a2.066,2.066,0,0,0-1.527.594A4.22,4.22,0,0,0,38.531,12l4.109.008.031-.125a2.313,2.313,0,0,0-.316-1.637A1.488,1.488,0,0,0,41.094,9.57ZM50.2,16.164a3.265,3.265,0,0,1-2.523.992,2.107,2.107,0,0,1-1.793-.867,3.317,3.317,0,0,1-.434-2.281l.906-5.461h1.414l-.914,5.484a3.642,3.642,0,0,0-.016.672,1.4,1.4,0,0,0,.336.883,1.146,1.146,0,0,0,.828.344A2.537,2.537,0,0,0,50.352,14.7l1.063-6.156h1.414L51.359,17H50.023Zm6.055-7.625-.18.945a3.305,3.305,0,0,1,2.57-1.094,2.608,2.608,0,0,1,1.363.367,1.8,1.8,0,0,1,.77.992,3.49,3.49,0,0,1,2.8-1.359,2.235,2.235,0,0,1,1.867.852,3.042,3.042,0,0,1,.445,2.2L64.969,17H63.563l.922-5.57a2.943,2.943,0,0,0,0-.742Q64.336,9.625,63.094,9.6a2.136,2.136,0,0,0-1.4.48,2.222,2.222,0,0,0-.809,1.3L59.922,17H58.5l.938-5.562a1.786,1.786,0,0,0-.262-1.336,1.377,1.377,0,0,0-1.129-.484,2.315,2.315,0,0,0-2.1,1.2L54.875,17H53.461L54.93,8.547Zm15.609,3.875A14.789,14.789,0,0,1,72.824,8.9,10.894,10.894,0,0,1,74.539,5.98,7.045,7.045,0,0,1,76.8,4.156l.211.969A8.108,8.108,0,0,0,74.91,7.512a12.281,12.281,0,0,0-1.355,3.5,16.834,16.834,0,0,0-.461,4,8.85,8.85,0,0,0,.418,2.848A4.494,4.494,0,0,0,74.719,19.8l-.352.875a5.641,5.641,0,0,1-2-2.68,10.335,10.335,0,0,1-.629-4.062,12.35,12.35,0,0,1,.109-1.43Zm11.969-.672H79.055l-.7,4.031h5.563L83.7,17H76.672L78.648,5.625h6.945l-.219,1.227H79.9l-.633,3.664h4.781ZM95.117,6.852H91.578L89.82,17H88.359L90.117,6.852H86.578L86.8,5.625h8.539ZM103.555,17h-1.469L103,11.742H97.445L96.531,17H95.063L97.039,5.625h1.469l-.852,4.891H103.2l.852-4.891h1.477Zm6.461-4.57a14.5,14.5,0,0,1-.992,3.605A10.841,10.841,0,0,1,107.3,18.9a7.163,7.163,0,0,1-2.223,1.777l-.219-.9q2.68-2.016,3.578-6.477a16.834,16.834,0,0,0,.344-3.461q-.039-3.352-1.625-4.8l.367-.875A5.179,5.179,0,0,1,109,5.785a7.645,7.645,0,0,1,.891,2.352,12.043,12.043,0,0,1,.254,2.777,13.344,13.344,0,0,1-.117,1.43Z" transform="translate(796 3058.975)" fill="#12263f"/>
      <path id="Trazado_229856" data-name="Trazado 229856" d="M5.352,12.406H2.727L1.93,17H.453L2.43,5.625l3.422.008a3.814,3.814,0,0,1,2.727.907,2.83,2.83,0,0,1,.789,2.448,3.241,3.241,0,0,1-.777,1.885A4.247,4.247,0,0,1,6.75,12.1l1.766,4.8-.008.1H6.945ZM2.938,11.172l2.156.008a3.012,3.012,0,0,0,1.9-.6,2.326,2.326,0,0,0,.906-1.6,1.837,1.837,0,0,0-.391-1.531,2.087,2.087,0,0,0-1.547-.586L3.688,6.859ZM11.406,17H10l1.469-8.453h1.406ZM12.57,5.461a.774.774,0,0,1,.6.215.8.8,0,0,1,.238.605.834.834,0,0,1-.836.852.779.779,0,0,1-.6-.211.764.764,0,0,1-.227-.594.886.886,0,0,1,.234-.609A.826.826,0,0,1,12.57,5.461Zm8.8,7.352a6.707,6.707,0,0,1-.7,2.32,3.949,3.949,0,0,1-1.336,1.543,3.058,3.058,0,0,1-1.766.488,2.815,2.815,0,0,1-2.25-.992L14.57,20.25H13.156l2.031-11.7,1.281-.008-.156.945A3.207,3.207,0,0,1,18.82,8.391a2.358,2.358,0,0,1,1.9.9,3.954,3.954,0,0,1,.719,2.391,8.413,8.413,0,0,1-.039.969Zm-1.391-.16L20.023,12a2.969,2.969,0,0,0-.434-1.744,1.525,1.525,0,0,0-1.254-.636,2.508,2.508,0,0,0-2.117,1.163l-.711,4.05a1.769,1.769,0,0,0,1.711,1.155,2.224,2.224,0,0,0,1.793-.823A4.777,4.777,0,0,0,19.984,12.652Zm10.18.16a6.707,6.707,0,0,1-.7,2.32,3.949,3.949,0,0,1-1.336,1.543,3.058,3.058,0,0,1-1.766.488,2.815,2.815,0,0,1-2.25-.992l-.758,4.078H21.945l2.031-11.7,1.281-.008-.156.945a3.207,3.207,0,0,1,2.508-1.094,2.358,2.358,0,0,1,1.9.9,3.954,3.954,0,0,1,.719,2.391,8.413,8.413,0,0,1-.039.969Zm-1.391-.16L28.813,12a2.969,2.969,0,0,0-.434-1.744,1.525,1.525,0,0,0-1.254-.636,2.508,2.508,0,0,0-2.117,1.163L24.3,14.83a1.769,1.769,0,0,0,1.711,1.155,2.224,2.224,0,0,0,1.793-.823A4.777,4.777,0,0,0,28.773,12.652ZM32.828,17H31.422L33.5,5h1.414Zm5.969.156a3.048,3.048,0,0,1-2.469-1.164,4.006,4.006,0,0,1-.75-2.9l.039-.336a5.624,5.624,0,0,1,.746-2.3,4.339,4.339,0,0,1,1.5-1.566,3.491,3.491,0,0,1,1.906-.5,2.688,2.688,0,0,1,2.047.867,3.566,3.566,0,0,1,.813,2.266,6.621,6.621,0,0,1-.031,1.016l-.086.648H36.984a2.856,2.856,0,0,0,.379,1.953,1.8,1.8,0,0,0,1.551.836,3.007,3.007,0,0,0,2.313-1.125l.813.688a3.718,3.718,0,0,1-1.371,1.2A3.886,3.886,0,0,1,38.8,17.156Zm.9-7.586a2.066,2.066,0,0,0-1.527.594A4.22,4.22,0,0,0,37.133,12l4.109.008.031-.125a2.313,2.313,0,0,0-.316-1.637A1.488,1.488,0,0,0,39.7,9.57Zm8.461,2.844A14.789,14.789,0,0,1,49.113,8.9,10.894,10.894,0,0,1,50.828,5.98a7.045,7.045,0,0,1,2.266-1.824l.211.969A8.108,8.108,0,0,0,51.2,7.512a12.281,12.281,0,0,0-1.355,3.5,16.834,16.834,0,0,0-.461,4,8.85,8.85,0,0,0,.418,2.848A4.494,4.494,0,0,0,51.008,19.8l-.352.875a5.641,5.641,0,0,1-2-2.68,10.335,10.335,0,0,1-.629-4.062,12.351,12.351,0,0,1,.109-1.43ZM57.7,9.977l3.32-4.352h1.813l-4.43,5.711L61.055,17H59.406l-2.016-4.43L53.969,17H52.156l4.523-5.8L54.1,5.625h1.625Zm9.953,2.43H65.031L64.234,17H62.758L64.734,5.625l3.422.008a3.814,3.814,0,0,1,2.727.907,2.83,2.83,0,0,1,.789,2.448,3.241,3.241,0,0,1-.777,1.885,4.247,4.247,0,0,1-1.84,1.228l1.766,4.8-.008.1H69.25Zm-2.414-1.234,2.156.008a3.012,3.012,0,0,0,1.9-.6,2.326,2.326,0,0,0,.906-1.6,1.837,1.837,0,0,0-.391-1.531,2.087,2.087,0,0,0-1.547-.586l-2.273-.008Zm9.4,1.375L73.867,17H72.4L74.375,5.625l3.8.008a3.713,3.713,0,0,1,2.711.934,2.937,2.937,0,0,1,.82,2.48,3.541,3.541,0,0,1-1.3,2.57,4.718,4.718,0,0,1-3.059.938Zm.211-1.227,2.531.008a3.079,3.079,0,0,0,1.961-.6,2.407,2.407,0,0,0,.9-1.672,1.886,1.886,0,0,0-.4-1.559,2.005,2.005,0,0,0-1.523-.629l-2.7-.008ZM86.078,12.43a14.5,14.5,0,0,1-.992,3.605A10.841,10.841,0,0,1,83.363,18.9a7.163,7.163,0,0,1-2.223,1.777l-.219-.9Q83.6,17.766,84.5,13.3a16.834,16.834,0,0,0,.344-3.461q-.039-3.352-1.625-4.8l.367-.875a5.179,5.179,0,0,1,1.48,1.621,7.645,7.645,0,0,1,.891,2.352,12.043,12.043,0,0,1,.254,2.777,13.344,13.344,0,0,1-.117,1.43Z" transform="translate(1012.213 3058.975)" fill="#12263f"/>
      <g id="Grupo_234473" data-name="Grupo 234473" transform="translate(774.854 3061.283)">
        <g id="Grupo_213053" data-name="Grupo 213053" clip-path="url(#clip-path-17)">
          <path id="Trazado_210475" data-name="Trazado 210475" d="M13.651,7.7c0,1.178-.005,2.355,0,3.533a.592.592,0,0,1-.334.575Q10.208,13.58,7.1,15.363a.512.512,0,0,1-.555,0Q3.456,13.587.361,11.824A.635.635,0,0,1,0,11.2Q.012,7.67,0,4.137a.517.517,0,0,1,.284-.5Q3.381,1.878,6.473.107a.643.643,0,0,1,.718.006q3.079,1.772,6.169,3.524a.528.528,0,0,1,.293.511c-.006,1.184,0,2.369,0,3.553" transform="translate(0 0)"/>
          <path id="Trazado_210476" data-name="Trazado 210476" d="M170.095,123.411V119.6c0-.749,0-1.5,0-2.246a.221.221,0,0,1,.121-.229q2.623-1.492,5.241-2.992c.023-.013.048-.022.073-.033.057.035.031.088.031.129q0,2.951,0,5.9a.238.238,0,0,1-.126.248q-2.615,1.485-5.224,2.98c-.028.016-.058.027-.116.054" transform="translate(-162.815 -109.217)" fill="#ffd800"/>
          <path id="Trazado_210477" data-name="Trazado 210477" d="M26.666,123.582l-1.62-.923c-1.221-.7-2.44-1.4-3.664-2.088a.313.313,0,0,1-.184-.318c.006-1.993,0-3.986,0-5.98.074-.025.119.028.169.056l5.147,2.939c.084.048.151.086.151.21,0,2.02,0,4.041,0,6.1" transform="translate(-20.291 -109.378)" fill="#ffd800"/>
          <path id="Trazado_210478" data-name="Trazado 210478" d="M32.411,26.19l1.471-.84q1.9-1.087,3.8-2.175a.256.256,0,0,1,.3-.026q2.614,1.5,5.234,2.995c.023.013.044.031.081.057l-1.686.962q-1.8,1.026-3.59,2.054a.255.255,0,0,1-.295.026q-2.614-1.5-5.234-2.994c-.023-.013-.044-.032-.079-.057" transform="translate(-31.024 -22.123)" fill="#ff8900"/>
        </g>
      </g>
      <g id="Grupo_234475" data-name="Grupo 234475" transform="translate(991.067 3061.283)">
        <g id="Grupo_213053-2" data-name="Grupo 213053" clip-path="url(#clip-path-17)">
          <path id="Trazado_210475-2" data-name="Trazado 210475" d="M13.651,7.7c0,1.178-.005,2.355,0,3.533a.592.592,0,0,1-.334.575Q10.208,13.58,7.1,15.363a.512.512,0,0,1-.555,0Q3.456,13.587.361,11.824A.635.635,0,0,1,0,11.2Q.012,7.67,0,4.137a.517.517,0,0,1,.284-.5Q3.381,1.878,6.473.107a.643.643,0,0,1,.718.006q3.079,1.772,6.169,3.524a.528.528,0,0,1,.293.511c-.006,1.184,0,2.369,0,3.553" transform="translate(0 0)"/>
          <path id="Trazado_210476-2" data-name="Trazado 210476" d="M170.095,123.411V119.6c0-.749,0-1.5,0-2.246a.221.221,0,0,1,.121-.229q2.623-1.492,5.241-2.992c.023-.013.048-.022.073-.033.057.035.031.088.031.129q0,2.951,0,5.9a.238.238,0,0,1-.126.248q-2.615,1.485-5.224,2.98c-.028.016-.058.027-.116.054" transform="translate(-162.815 -109.217)" fill="#ffd800"/>
          <path id="Trazado_210477-2" data-name="Trazado 210477" d="M26.666,123.582l-1.62-.923c-1.221-.7-2.44-1.4-3.664-2.088a.313.313,0,0,1-.184-.318c.006-1.993,0-3.986,0-5.98.074-.025.119.028.169.056l5.147,2.939c.084.048.151.086.151.21,0,2.02,0,4.041,0,6.1" transform="translate(-20.291 -109.378)" fill="#ffd800"/>
          <path id="Trazado_210478-2" data-name="Trazado 210478" d="M32.411,26.19l1.471-.84q1.9-1.087,3.8-2.175a.256.256,0,0,1,.3-.026q2.614,1.5,5.234,2.995c.023.013.044.031.081.057l-1.686.962q-1.8,1.026-3.59,2.054a.255.255,0,0,1-.295.026q-2.614-1.5-5.234-2.994c-.023-.013-.044-.032-.079-.057" transform="translate(-31.024 -22.123)" fill="#ff8900"/>
        </g>
      </g>
      <g id="Grupo_234474" data-name="Grupo 234474" transform="translate(578.854 3061.283)">
        <g id="Grupo_213053-3" data-name="Grupo 213053" clip-path="url(#clip-path-17)">
          <path id="Trazado_210475-3" data-name="Trazado 210475" d="M13.651,7.7c0,1.178-.005,2.355,0,3.533a.592.592,0,0,1-.334.575Q10.208,13.58,7.1,15.363a.512.512,0,0,1-.555,0Q3.456,13.587.361,11.824A.635.635,0,0,1,0,11.2Q.012,7.67,0,4.137a.517.517,0,0,1,.284-.5Q3.381,1.878,6.473.107a.643.643,0,0,1,.718.006q3.079,1.772,6.169,3.524a.528.528,0,0,1,.293.511c-.006,1.184,0,2.369,0,3.553" transform="translate(0 0)"/>
          <path id="Trazado_210476-3" data-name="Trazado 210476" d="M170.095,123.411V119.6c0-.749,0-1.5,0-2.246a.221.221,0,0,1,.121-.229q2.623-1.492,5.241-2.992c.023-.013.048-.022.073-.033.057.035.031.088.031.129q0,2.951,0,5.9a.238.238,0,0,1-.126.248q-2.615,1.485-5.224,2.98c-.028.016-.058.027-.116.054" transform="translate(-162.815 -109.217)" fill="#ffd800"/>
          <path id="Trazado_210477-3" data-name="Trazado 210477" d="M26.666,123.582l-1.62-.923c-1.221-.7-2.44-1.4-3.664-2.088a.313.313,0,0,1-.184-.318c.006-1.993,0-3.986,0-5.98.074-.025.119.028.169.056l5.147,2.939c.084.048.151.086.151.21,0,2.02,0,4.041,0,6.1" transform="translate(-20.291 -109.378)" fill="#ffd800"/>
          <path id="Trazado_210478-3" data-name="Trazado 210478" d="M32.411,26.19l1.471-.84q1.9-1.087,3.8-2.175a.256.256,0,0,1,.3-.026q2.614,1.5,5.234,2.995c.023.013.044.031.081.057l-1.686.962q-1.8,1.026-3.59,2.054a.255.255,0,0,1-.295.026q-2.614-1.5-5.234-2.994c-.023-.013-.044-.032-.079-.057" transform="translate(-31.024 -22.123)" fill="#ff8900"/>
        </g>
      </g>
    </g>
  </g>
</svg>
