<svg xmlns="http://www.w3.org/2000/svg" xmlns:xlink="http://www.w3.org/1999/xlink" width="49" height="49" viewBox="0 0 49 49"><defs><clipPath id="a"><rect width="49" height="49" transform="translate(0.273)" fill="#ff8900"/></clipPath></defs><g transform="translate(-0.273)" clip-path="url(#a)"><path d="M48.215,0C47.2.222,46.194.458,45.179.664c-2.558.52-5.119,1.02-7.674,1.552a1.293,1.293,0,0,0-.664.413Q30.953,9.558,25.088,16.5c-.133.158-.27.312-.445.514-.156-.176-.293-.324-.423-.477Q18.392,9.657,12.574,2.765a1.833,1.833,0,0,0-1.127-.645Q6.379,1.123,1.317.1A1.6,1.6,0,0,1,1.059,0H0V1.059C.224,2.086.459,3.112.669,4.142c.511,2.511,1,5.026,1.527,7.533a1.521,1.521,0,0,0,.474.786Q9.9,18.615,17.163,24.742c.171.144.338.292.55.476L13.2,30.554c-.488-.493-.955-.971-1.428-1.442A2.826,2.826,0,0,0,7.383,29.1q-.545.543-1.088,1.089c-.516.521-.512.85.017,1.38,1.347,1.35,2.7,2.7,4.067,4.07-.116.125-.217.242-.325.351Q6.89,39.158,3.718,42.312a1.311,1.311,0,0,1-.693.319A3.35,3.35,0,0,0,.189,44.85c-.062.16-.126.319-.189.478v1.155a12.711,12.711,0,0,0,.824,1.633,3.344,3.344,0,0,0,1.967,1.158H3.849A10.57,10.57,0,0,0,5.5,48.432a3.067,3.067,0,0,0,1.146-2.248.886.886,0,0,1,.194-.5q3.337-3.363,6.694-6.7a.894.894,0,0,1,.114-.076l2.433,2.438c.567.567,1.13,1.137,1.7,1.7a.762.762,0,0,0,1.244-.005c.436-.426.868-.855,1.292-1.292a2.782,2.782,0,0,0,0-4.078c-.514-.524-1.057-1.02-1.622-1.563l5.943-5.033,5.906,5c-.552.555-1.093,1.089-1.624,1.633a2.67,2.67,0,0,0-.7,2.829,3.67,3.67,0,0,0,.715,1.173c.39.465.849.873,1.282,1.3.482.476.837.48,1.313.006q1.875-1.866,3.739-3.743a3.194,3.194,0,0,0,.316-.462c1.437,1.441,2.771,2.781,4.107,4.119.895.9,1.8,1.787,2.681,2.692a.884.884,0,0,1,.252.479,3.326,3.326,0,0,0,2.626,3.107,1.112,1.112,0,0,1,.173.079h1.059a3.394,3.394,0,0,0,2.059-1.265,11.649,11.649,0,0,0,.732-1.526V45.424a9.484,9.484,0,0,0-.715-1.5,3.157,3.157,0,0,0-2.373-1.292.884.884,0,0,1-.5-.194q-3.363-3.335-6.7-6.691a.957.957,0,0,1-.078-.116c.638-.636,1.283-1.277,1.927-1.92.749-.747,1.5-1.491,2.243-2.246a.741.741,0,0,0,0-1.176c-.48-.494-.96-.991-1.466-1.458a2.755,2.755,0,0,0-3.829.024c-.567.539-1.089,1.125-1.67,1.731l-4.544-5.368c1.023-.867,2.022-1.716,3.022-2.562q6.019-5.093,12.03-10.2a1.519,1.519,0,0,0,.469-.79c.713-3.448,1.4-6.9,2.094-10.354a1.579,1.579,0,0,1,.1-.258V0ZM17.628,23.247Q10.8,17.468,3.976,11.68a1.356,1.356,0,0,1-.449-.685C2.9,7.968,2.3,4.936,1.7,1.905c-.012-.06-.017-.122-.036-.251,1.034.2,2.031.4,3.028.6,2.026.4,4.05.819,6.078,1.207a1.6,1.6,0,0,1,.99.587q5.688,6.749,11.4,13.479c.166.2.33.392.529.63l-2.144,2.536a3.481,3.481,0,0,0-.345-.5q-2.51-2.524-5.033-5.037a2.134,2.134,0,0,0-.355-.322.71.71,0,0,0-.985.986,1.951,1.951,0,0,0,.29.318c1.85,1.845,3.7,3.69,5.58,5.563L18.661,24.1c-.354-.294-.7-.573-1.033-.857M3.281,47.826A1.874,1.874,0,1,1,5.2,45.956a1.876,1.876,0,0,1-1.915,1.87m2.96-3.76L5.206,43.012l6.258-6.256,1.027,1.081L6.241,44.067m12.954-5.5a1.4,1.4,0,0,1,0,2.255c-.247.251-.483.513-.682.725L7.72,30.757c.238-.223.531-.495.822-.77A1.356,1.356,0,0,1,10.624,30q2.356,2.337,4.695,4.691,1.938,1.939,3.876,3.878m6.564-8.447,1.753-1.486,5.2,5.19-1.156,1.2-5.793-4.9m20.2,13.954a1.874,1.874,0,1,1-1.876,1.861,1.881,1.881,0,0,1,1.876-1.861m-1.9-1.055L43.03,44.049l-6.253-6.233,1.1-.961,6.176,6.168M38.574,30.077a1.4,1.4,0,0,1,2.254,0c.251.246.514.482.721.676l-10.8,10.8c-.216-.232-.486-.527-.763-.817A1.357,1.357,0,0,1,30,38.65q2.287-2.3,4.59-4.594,1.99-1.99,3.98-3.979m-3.593,1.415-1.163,1.1-5.029-5.038,1.665-1.415,4.527,5.348M46.869,5.4c-.374,1.868-.743,3.738-1.134,5.6a1.13,1.13,0,0,1-.346.589Q32.112,22.858,18.819,34.1l-1.047.886-1.191-1.262c.043-.045.166-.182.3-.312L34.057,16.24c.555-.555.635-.952.267-1.307s-.735-.263-1.271.273q-8.59,8.587-17.178,17.177a4.85,4.85,0,0,0-.352.453l-1.281-1.275Q15.326,30.274,16.4,29q10.577-12.5,21.162-25a1.357,1.357,0,0,1,.677-.458C41.268,2.911,44.3,2.31,47.329,1.7c.074-.015.15-.024.288-.045-.255,1.279-.5,2.513-.748,3.747" fill="#ff8900"/></g></svg>