<svg xmlns="http://www.w3.org/2000/svg" xmlns:xlink="http://www.w3.org/1999/xlink" width="49.38" height="49.409" viewBox="0 0 49.38 49.409"><defs><clipPath id="a"><rect width="49.38" height="49.409" fill="#ff8900"/></clipPath></defs><g clip-path="url(#a)"><path d="M23.22.226a25.4,25.4,0,0,0-7.12,1.8A24.258,24.258,0,0,0,8.837,6.763a24.4,24.4,0,0,0-5.012,6.544,23.993,23.993,0,0,0-2.585,8.28,24.667,24.667,0,0,0-.194,3.7,24.923,24.923,0,0,0,2.089,9.34A23.7,23.7,0,0,0,7.09,40.811a24.631,24.631,0,0,0,6.755,5.436,24.292,24.292,0,0,0,8.278,2.741,24.722,24.722,0,0,0,5.326.174,24.051,24.051,0,0,0,9.226-2.546,24.6,24.6,0,0,0,10.19-9.629,23.675,23.675,0,0,0,3.114-9.4c.026-.223.071-.444.1-.667.014-.129-.01-.31.211-.309v-3.76c-.274-.05-.209-.283-.228-.453a25.955,25.955,0,0,0-1.216-5.641,25.159,25.159,0,0,0-3.44-6.6c-.147-.2-.43-.409-.312-.662.135-.288.487-.152.748-.173.192-.016.386,0,.578-.008.577-.037.916-.345.929-.841.013-.473-.338-.784-.94-.816-.4-.021-.8-.006-1.2-.006-.723,0-1.446-.012-2.169,0a.9.9,0,0,0-.985.905q-.066,1.758,0,3.518a.863.863,0,0,0,.858.87c.454-.008.764-.368.789-.916,0-.048,0-.1,0-.145.03-.226-.088-.557.14-.66,0-.007,0-.015,0-.022l.028.012.02-.007c.267-.07.406.271.546.475a22.852,22.852,0,0,1,1.964,22.522,22.274,22.274,0,0,1-5.283,7.286A22.908,22.908,0,0,1,5.1,34.849a22.14,22.14,0,0,1-2.193-7.2A22.3,22.3,0,0,1,4.479,15.9,23.03,23.03,0,0,1,23.169,1.921a22.241,22.241,0,0,1,5,.014,1.029,1.029,0,0,0,.657-.072.781.781,0,0,0,.474-.772.787.787,0,0,0-.6-.732,5.031,5.031,0,0,0-.855-.14c-.155-.015-.375.045-.406-.219h-3.76c-.049.277-.283.206-.453.225" transform="translate(-0.904 -0.001)" fill="#ff8900"/><path d="M39.147.219A5.022,5.022,0,0,1,40,.359a.787.787,0,0,1,.6.732.781.781,0,0,1-.474.772,1.03,1.03,0,0,1-.657.072,22.242,22.242,0,0,0-5-.014,23.03,23.03,0,0,0-18.69,13.974,22.3,22.3,0,0,0-1.57,11.749,22.14,22.14,0,0,0,2.193,7.2,23.04,23.04,0,0,0,13.8,11.71,22.864,22.864,0,0,0,22.209-5.065A22.273,22.273,0,0,0,57.7,34.207a22.851,22.851,0,0,0-1.964-22.522c-.14-.2-.279-.545-.546-.475l-.02.007c.192.08.247.231.327.349a22.2,22.2,0,0,1,3.091,19.946,22.627,22.627,0,0,1-24.442,15.74A21.7,21.7,0,0,1,21.5,41.379a22.188,22.188,0,0,1-7.149-19.518,21.465,21.465,0,0,1,5.9-12.635A22.343,22.343,0,0,1,39.6,2.092a1,1,0,0,0,1.16-.831A.994.994,0,0,0,39.844.174,3.638,3.638,0,0,1,38.741,0c.031.264.25.2.406.219" transform="translate(-12.212)" fill="#ff8900"/><path d="M326.482,73.4a24.522,24.522,0,0,0-3.157-10.155,28.668,28.668,0,0,0-1.954-2.933c.036-.043.045-.064.054-.064.434,0,.868,0,1.3-.01a.961.961,0,0,0,1.057-.942.951.951,0,0,0-1.06-.983q-1.735-.011-3.471,0a.972.972,0,0,0-1.052,1.053c-.011.4,0,.8,0,1.205,0,.787-.017,1.575.008,2.362a.958.958,0,1,0,1.915-.017c.011-.29,0-.582,0-.895-.228.1-.11.434-.14.66-.006.047,0,.1,0,.144-.025.548-.335.908-.789.916a.862.862,0,0,1-.858-.87q-.068-1.758,0-3.518a.9.9,0,0,1,.985-.905c.723-.017,1.446,0,2.169,0,.4,0,.8-.015,1.2.006.6.031.952.343.94.816-.013.5-.352.8-.929.841-.193.012-.387-.007-.578.008-.261.021-.614-.115-.748.173-.118.252.165.46.312.662a25.159,25.159,0,0,1,3.44,6.6,25.956,25.956,0,0,1,1.216,5.641c.019.171-.046.4.228.453-.125-.046-.083-.157-.09-.244" transform="translate(-277.192 -50.798)" fill="#ff8900"/><path d="M22.525.095A24.147,24.147,0,0,0,18.032.9,24.677,24.677,0,1,0,32.58,48.045c9.312-3.275,14.81-10,16.536-19.756a8.246,8.246,0,0,1,.264-1.679c-.221,0-.2.18-.211.309-.024.224-.069.444-.1.668a23.676,23.676,0,0,1-3.114,9.4,24.6,24.6,0,0,1-10.19,9.629,24.051,24.051,0,0,1-9.226,2.546,24.722,24.722,0,0,1-5.326-.174,24.286,24.286,0,0,1-8.278-2.741A24.628,24.628,0,0,1,6.187,40.81a23.7,23.7,0,0,1-3.955-6.186,24.924,24.924,0,0,1-2.089-9.34,24.667,24.667,0,0,1,.194-3.7,23.99,23.99,0,0,1,2.585-8.28A24.4,24.4,0,0,1,7.933,6.762,24.258,24.258,0,0,1,15.2,2.028a25.39,25.39,0,0,1,7.12-1.8c.169-.018.4.052.453-.225-.046.122-.156.088-.245.095" transform="translate(0)" fill="#ff8900"/><path d="M60.132,50.152a17.2,17.2,0,0,0-2.733,1.4.959.959,0,1,0,.956,1.663c.143-.072.278-.16.416-.241A16.818,16.818,0,0,1,67.6,50.653a13.8,13.8,0,0,1,2.85.333A16.49,16.49,0,1,1,50.708,67.239,16.148,16.148,0,0,1,53.136,58.5a.979.979,0,0,0-.214-1.475c-.507-.32-1.064-.136-1.442.492a18.066,18.066,0,0,0-2.41,12.993A18.4,18.4,0,1,0,60.132,50.152" transform="translate(-42.461 -42.476)" fill="#ff8900"/><path d="M146,122.059c-.923-.94-1.86-1.867-2.791-2.8a1.187,1.187,0,0,0-.686-.415.914.914,0,0,0-1,.511.949.949,0,0,0,.233,1.182c.965.967,1.927,1.936,2.9,2.892.207.2.3.363.15.656a2.26,2.26,0,0,0-.231,1.022,3.363,3.363,0,0,0,1.989,3.238,3.3,3.3,0,0,0,3.579-.629,3.18,3.18,0,0,0,.827-3.571.591.591,0,0,1,.163-.738q3.012-2.987,6-5.995a2.75,2.75,0,0,0,.4-.474.921.921,0,0,0-.148-1.148.905.905,0,0,0-1.107-.173,2.041,2.041,0,0,0-.479.4q-3.037,3.03-6.064,6.071a.506.506,0,0,1-.658.137,3.019,3.019,0,0,0-2.392,0,.531.531,0,0,1-.695-.163m1.887,1.863a1.381,1.381,0,1,1-1.384,1.364,1.367,1.367,0,0,1,1.384-1.364" transform="translate(-123.189 -100.62)" fill="#ff8900"/><path d="M283,186c.208,0,.417.009.625,0a.955.955,0,0,0,.082-1.9,8.472,8.472,0,0,0-1.392,0,.955.955,0,0,0,.06,1.9c.208.012.416,0,.625,0" transform="translate(-245.192 -160.349)" fill="#ff8900"/><path d="M184.115,283.5a.934.934,0,0,0,.858.929.911.911,0,0,0,1.033-.789A7,7,0,0,0,186,282.1a.914.914,0,0,0-1-.77.941.941,0,0,0-.879.913c-.013.208,0,.416,0,.625s-.01.417,0,.625" transform="translate(-160.387 -245.08)" fill="#ff8900"/><path d="M186.1,78.675a.957.957,0,0,0-1.911-.054,8.5,8.5,0,0,0,0,1.345.957.957,0,0,0,1.91-.089c.009-.192,0-.384,0-.577,0-.208.009-.417,0-.625" transform="translate(-160.434 -67.723)" fill="#ff8900"/><path d="M77.856,184.9a.921.921,0,0,0,.825,1.006,7.807,7.807,0,0,0,1.439,0,.933.933,0,0,0,.829-1.008A.944.944,0,0,0,80,184c-.192-.009-.384,0-.577,0-.208,0-.417-.008-.625,0a.932.932,0,0,0-.943.894" transform="translate(-67.823 -160.29)" fill="#ff8900"/><path d="M236.91,9.375a.959.959,0,0,0,.978-.963.939.939,0,0,0-.975-.957.972.972,0,0,0-.944.954.993.993,0,0,0,.941.966" transform="translate(-205.564 -6.494)" fill="#ff8900"/><path d="M89.454,90.284a.951.951,0,0,0,.945-.943.967.967,0,0,0-.968-.976.985.985,0,0,0-.953.951.968.968,0,0,0,.976.969" transform="translate(-77.077 -76.978)" fill="#ff8900"/></g></svg>