<svg xmlns="http://www.w3.org/2000/svg" xmlns:xlink="http://www.w3.org/1999/xlink" width="75.813" height="49.409" viewBox="0 0 75.813 49.409"><defs><clipPath id="a"><rect width="75.813" height="49.409" fill="#ff8900"/></clipPath></defs><g clip-path="url(#a)"><path d="M73.093,43.28a1.268,1.268,0,0,1-.73-1.338c.024-.966-.1-1.937-.063-2.9a2.331,2.331,0,0,0-1.88-2.63.818.818,0,0,1-.651-.842,47.007,47.007,0,0,0-.78-5.229c-1.525-7.246-4.481-13.7-10.265-18.58a.718.718,0,0,1-.243-.813,5.817,5.817,0,0,0,.192-2.2,4.07,4.07,0,0,0-3.032-3.439,4.172,4.172,0,0,0-4.663,1.434c-.243.294-.407.429-.822.284A28.308,28.308,0,0,0,44.12,5.621c-.361-.043-.509-.181-.569-.578a5.687,5.687,0,0,0-11.292-.075c-.077.446-.243.619-.69.671a27.246,27.246,0,0,0-5.629,1.289A.955.955,0,0,1,24.677,6.6a4.053,4.053,0,0,0-4.3-1.345,4.075,4.075,0,0,0-3.189,3.186,4.307,4.307,0,0,0,.083,2.2,1.181,1.181,0,0,1-.479,1.376,24.655,24.655,0,0,0-4.943,5.614,38.666,38.666,0,0,0-5.771,17.64,1.309,1.309,0,0,1-1.047,1.291,2.025,2.025,0,0,0-1.518,2.1c-.024,1.11-.089,2.222-.05,3.331a1.209,1.209,0,0,1-.717,1.264A4.6,4.6,0,0,0,0,47.616,1.632,1.632,0,0,0,1.849,49.4H37.837v.006h9.892q13.176,0,26.351-.007a1.632,1.632,0,0,0,1.725-1.655,4.612,4.612,0,0,0-2.713-4.467m-3.528-5.026c.444.187.677.392.664.911-.018.71.046,1.423.093,2.133.028.415-.1.492-.482.325-5.956-2.586-12.286-3.574-18.659-4.377-.338-.043-.672-.112-1.1-.184a15.429,15.429,0,0,0,1.141-2.536c.113-.384.343-.389.647-.347,6.017.836,12.028,1.695,17.693,4.075M57.973,13.918a20.113,20.113,0,0,1,3.476,3.815,34.6,34.6,0,0,1,5.823,14.753c.131.756.219,1.519.342,2.277.073.446-.067.548-.494.409a72.365,72.365,0,0,0-10.774-2.406c-1.288-.21-2.576-.425-3.87-.582-.461-.056-.638-.17-.565-.661a11.449,11.449,0,0,0,0-3.319c-.065-.449.085-.566.519-.633A4.039,4.039,0,0,0,56.2,23.908c.594-3.289,1.172-6.58,1.778-9.99M50.409,18.8c.62-3.148,1.137-6.317,1.689-9.479.247-1.413.985-2.145,2.2-2.145a2.2,2.2,0,0,1,2.3,2.681Q55.434,16.529,54.263,23.2c-.289,1.642-.95,2.328-2.2,2.358-.467.011-.836-.094-.933-.627a.762.762,0,0,0-.109-.321c-1.393-1.815-1.009-3.789-.61-5.812M44.267,7.7a32.246,32.246,0,0,1,5.361,1.317c.356.122.421.267.359.609-.62,3.44-1.227,6.882-1.862,10.457A14.722,14.722,0,0,0,43.97,17.1a.618.618,0,0,1-.365-.678c.009-2.733.021-5.467-.007-8.2-.006-.571.246-.586.67-.518M34.218,5.8a3.669,3.669,0,1,1,7.337-.022c.028,1.594.006,3.189.006,4.784,0,1.652-.012,3.3.009,4.954.006.453-.039.68-.589.549a13.158,13.158,0,0,0-6.161,0c-.5.118-.624-.023-.621-.526.02-3.246-.013-6.492.019-9.738m3.7,11.965a12.094,12.094,0,1,1-12.1,12.076,12.1,12.1,0,0,1,12.1-12.076M26.344,8.944a36.954,36.954,0,0,1,5.2-1.252c.484-.079.629.041.624.549-.024,2.705-.012,5.411-.01,8.117,0,.315.017.582-.369.759a14.137,14.137,0,0,0-4.121,2.976c-.407-2.3-.787-4.451-1.169-6.6-.219-1.232-.423-2.466-.668-3.692-.1-.481.027-.7.509-.854m-4.826-1.77a2.026,2.026,0,0,1,2.1,1.833c.688,3.772,1.193,7.586,2.078,11.31.473,1.988-.661,3.327-1.154,4.939-.1.321-.411.273-.65.291-1.208.091-2.043-.633-2.3-2.026-.365-1.983-.7-3.972-1.051-5.958q-.664-3.776-1.331-7.552a2.242,2.242,0,0,1,2.306-2.837m-3.7,6.67c.413,2.336.793,4.487,1.175,6.637.219,1.232.412,2.469.669,3.693A3.969,3.969,0,0,0,23.3,27.562c.489.064.695.153.588.712a8.769,8.769,0,0,0,0,3.228c.087.476-.038.607-.529.676A92.554,92.554,0,0,0,8.458,35.22a1.461,1.461,0,0,1-.332,0c1.013-8.081,3.447-15.465,9.688-21.379M8.328,37.466a63.168,63.168,0,0,1,13.084-2.935c.842-.123,1.687-.231,2.529-.352.267-.038.5-.058.606.277A18.394,18.394,0,0,0,25.722,37.1c-6.919.869-13.747,1.866-20.157,4.668a1.19,1.19,0,0,1-.06-.241c.16-3.738-.68-2.749,2.823-4.058m64.917,9.9c-.794-.033-1.591,0-2.387,0H37.946v-.006q-17.522,0-35.043-.006c-.266,0-.643.154-.781-.11-.162-.31.045-.662.219-.958a4.232,4.232,0,0,1,1.745-1.456A40.556,40.556,0,0,1,16,40.69c3.509-.7,7.048-1.207,10.6-1.636a.918.918,0,0,1,.877.334c5.972,6.2,14.822,6.193,20.857-.01.2-.206.36-.391.713-.346a91.988,91.988,0,0,1,16.773,3.221,32.677,32.677,0,0,1,6.131,2.711,3.26,3.26,0,0,1,1.717,1.805c.138.438.08.614-.427.592" transform="translate(0 0)" fill="#ff8900"/><path d="M548.189,349.614c.72-.056.811.237.807.858-.027,3.531-.013,7.062-.013,10.593,0,1.111,0,1.1-1.1,1.139-.251.008-.573-.145-.7.275-.312,1.037.047,1.542,1.124,1.542a2.051,2.051,0,0,0,.341,0c.587-.1.811.116.748.728-.032.316-.193.838.12.941a2.839,2.839,0,0,0,1.5.023c.342-.085.091-.553.162-.839s-.185-.655.18-.837a.872.872,0,0,1,1.331.871c-.059.707.147.921.87.893.632-.025,1.051-.057.9-.844-.127-.661.055-1.092.84-1.035a1.545,1.545,0,0,0,.5-.084c1.65-.454,3.091-1.158,3.595-3,.713-2.6-.269-4.485-3.06-5.666.476-.282.848-.477,1.194-.711a3.042,3.042,0,0,0,1.427-2.905c-.14-2.177-1.176-3.3-3.575-3.556-.872-.092-1.025-.423-.938-1.157.028-.235.138-.652-.088-.7a3.647,3.647,0,0,0-1.507-.033c-.307.065-.165.513-.13.763.111.8-.2,1-.973.974-1.046-.039-.544-.792-.534-1.167.022-.8-.48-.622-.892-.6s-.995-.275-.963.607c.042,1.139-.015,1.141-1.158,1.142l-.682,0a.313.313,0,0,0-.321.211c-.373.849.085,1.645.986,1.575m3.381,1.546c0-1.528,0-1.528,1.564-1.507.341,0,.683-.026,1.021,0a2.158,2.158,0,0,1,2.192,2.15,2.237,2.237,0,0,1-2.057,2.472c-2.687.413-2.72.386-2.72-2.265Zm.587,4.979a12.95,12.95,0,0,1,2.788.159,2.934,2.934,0,0,1,2.06,3.38,2.577,2.577,0,0,1-2.492,2.449c-.815.085-1.643.042-2.464.076-.368.016-.495-.121-.485-.491.021-.852.007-1.7.007-2.557,0-.8.023-1.592-.009-2.386-.019-.459.087-.675.6-.631" transform="translate(-515.498 -326.072)" fill="#ff8900"/></g></svg>