<svg xmlns="http://www.w3.org/2000/svg" xmlns:xlink="http://www.w3.org/1999/xlink" width="45.172" height="49.409" viewBox="0 0 45.172 49.409"><defs><clipPath id="a"><rect width="45.172" height="49.409" fill="#ff8900"/></clipPath></defs><g clip-path="url(#a)"><path d="M10.862,340.369a1.917,1.917,0,0,1-.305-1.089c.009-1.653,0-3.307,0-4.96a6.346,6.346,0,0,0-.306-1.943,4.144,4.144,0,0,0-4.522-2.966,4.815,4.815,0,0,0-1.551.316,3.9,3.9,0,0,0-2.35,2.635,7.588,7.588,0,0,0-.35,2.276c0,1.541-.007,3.082,0,4.623a2.163,2.163,0,0,1-.318,1.185,5.09,5.09,0,0,0-.847,2.819.606.606,0,0,1-.134.45H11.951a1.768,1.768,0,0,1-.205-.926,5.693,5.693,0,0,0-.884-2.422m-7.934-5.353c.073-.586.553-.392.876-.424a4.369,4.369,0,0,0,3-1.482,5.717,5.717,0,0,0,2.058,1.359,1.364,1.364,0,0,1,.622,1.065.812.812,0,0,1-.575.852.379.379,0,0,0-.265.239,5.19,5.19,0,0,1-1.068,1.629l.664.282a3.289,3.289,0,0,1-4.39,0l.621-.266A5.6,5.6,0,0,1,3.4,336.547c-.046-.129-.168-.127-.268-.171a.78.78,0,0,1-.528-.685c-.013-.271-.1-.605.325-.676m8.152,8.221H6.018c-1.639,0-3.278-.011-4.917.008-.366,0-.5-.065-.44-.462a5.453,5.453,0,0,1,2.453-3.858.328.328,0,0,1,.457.018,3.8,3.8,0,0,0,4.954.018.344.344,0,0,1,.491,0,5.484,5.484,0,0,1,2.427,3.979c.049.361-.165.3-.363.3" transform="translate(-0.166 -294.308)" fill="#ff8900"/><path d="M10.551,338.225c-.007-1.8.019-3.6-.025-5.4-.069-2.808-1.54-4.5-4.125-4.816a4.349,4.349,0,0,0-4.63,2.394,7.271,7.271,0,0,0-.586,3.1q-.008,2.386,0,4.772a1.131,1.131,0,0,1-.2.667,5.356,5.356,0,0,0-.964,3.5.605.605,0,0,0,.134-.45A5.091,5.091,0,0,1,1,339.166a2.162,2.162,0,0,0,.318-1.185c-.011-1.541-.006-3.082,0-4.623a7.588,7.588,0,0,1,.35-2.276,3.9,3.9,0,0,1,2.35-2.635,4.817,4.817,0,0,1,1.551-.316,4.145,4.145,0,0,1,4.522,2.966,6.339,6.339,0,0,1,.306,1.943c0,1.654.005,3.307,0,4.96a1.915,1.915,0,0,0,.305,1.089,5.7,5.7,0,0,1,.884,2.422,1.769,1.769,0,0,0,.205.926,6.086,6.086,0,0,0-1.132-3.658.846.846,0,0,1-.1-.552" transform="translate(0 -293.026)" fill="#ff8900"/><path d="M324.981,343.157a4.921,4.921,0,0,0-.8-2.69,2.481,2.481,0,0,1-.364-1.368c.016-1.527.028-3.054,0-4.581a6.843,6.843,0,0,0-.662-2.986,3.637,3.637,0,0,0-1.874-1.792,4.791,4.791,0,0,0-5.379,1.007,5.257,5.257,0,0,0-1.149,3.452c-.034,1.671-.013,3.343,0,5.014a1.868,1.868,0,0,1-.3,1.09,6.038,6.038,0,0,0-.943,2.854.769.769,0,0,1-.147.5h11.765a.668.668,0,0,1-.135-.5m-8.86-8.235c.3-.5.666-.356,1.01-.4a4.608,4.608,0,0,0,2.918-1.461,4.071,4.071,0,0,0,2.021,1.288c.031.009.06.024.091.03.085.018.146.051.148.152.012.5.757.859.267,1.449-.02.025-.034.062-.06.074-.9.437-.949,1.55-1.758,2.123l.7.293a3.261,3.261,0,0,1-4.376-.006l.61-.261a5.349,5.349,0,0,1-1.059-1.691c-.053-.157-.186-.15-.3-.2-.616-.3-.558-.83-.219-1.392m8.145,8.267c-1.669-.019-3.337-.009-5.006-.009s-3.338-.008-5.006.007c-.334,0-.433-.056-.378-.42a5.482,5.482,0,0,1,2.418-3.874.373.373,0,0,1,.531.014,3.82,3.82,0,0,0,4.915.008c.149-.114.25-.193.448-.059a5.474,5.474,0,0,1,2.455,3.9c.048.329-.024.434-.378.43" transform="translate(-279.963 -294.247)" fill="#ff8900"/><path d="M324.176,338.977a1.412,1.412,0,0,1-.23-.8c-.033-1.991.106-3.985-.085-5.973a4.637,4.637,0,0,0-8.719-1.755,6.118,6.118,0,0,0-.538,2.476c-.018,1.767-.012,3.535-.018,5.3a.841.841,0,0,1-.1.552,6.055,6.055,0,0,0-1.134,3.657.768.768,0,0,0,.147-.5,6.039,6.039,0,0,1,.943-2.854,1.868,1.868,0,0,0,.3-1.09c-.009-1.672-.029-3.344,0-5.014a5.256,5.256,0,0,1,1.149-3.452,4.791,4.791,0,0,1,5.379-1.007,3.637,3.637,0,0,1,1.874,1.792,6.845,6.845,0,0,1,.662,2.986c.03,1.526.018,3.054,0,4.58a2.48,2.48,0,0,0,.364,1.368,4.921,4.921,0,0,1,.8,2.69.668.668,0,0,0,.135.5,5.309,5.309,0,0,0-.938-3.455" transform="translate(-279.962 -293.022)" fill="#ff8900"/><path d="M61.852,29.081c-.6.625-1.218,1.227-1.885,1.893-.052-.545-.074-1.011-.144-1.47A16.554,16.554,0,0,0,51.7,17.318a.639.639,0,0,1-.368-.637c.015-2.234.009-4.468.008-6.7a16.741,16.741,0,0,0-.271-3.212c-.523-2.674-1.738-4.877-4.347-6.017A9.418,9.418,0,0,0,40.4.368a6.932,6.932,0,0,0-4.738,4.1,10.734,10.734,0,0,0-.889,3.774c-.165,2.858-.045,5.72-.069,8.581a.7.7,0,0,1-.376.686,16.59,16.59,0,0,0-7.325,9.615,18.194,18.194,0,0,0-.637,3.85l-1.612-1.611c-.561-.562-.551-.552-1.131.017-.2.2-.232.306-.009.523q1.571,1.531,3.1,3.1c.212.218.319.2.523-.005.92-.944,1.858-1.869,2.79-2.8.556-.557.542-.544.018-1.1-.233-.248-.365-.243-.6,0-.591.627-1.212,1.225-1.858,1.871-.094-4.414,3.758-11.013,7.081-12.2.062.23-.126.351-.228.5a10.533,10.533,0,0,0-1.9,6.009c0,.313.076.4.4.4q10.077-.014,20.153,0c.333,0,.389-.109.386-.408a10.457,10.457,0,0,0-1.933-6.044.625.625,0,0,1-.137-.73A15.7,15.7,0,0,1,58.8,31.028l-1.647-1.651c-.573-.574-.56-.561-1.132-.013-.231.222-.221.341,0,.559q1.553,1.515,3.069,3.068c.236.243.352.2.559-.017.91-.931,1.836-1.846,2.756-2.767.57-.57.556-.557.007-1.133-.226-.237-.348-.214-.559.007M36.925,10.763c.068-.279.157-.582.548-.547.195.018.172-.116.152-.214-.092-.458.205-.49.527-.492a9.3,9.3,0,0,0,2.935-.446,6.9,6.9,0,0,0,3.105-2.019c.151-.176.225-.209.391-.014a6.64,6.64,0,0,0,3.422,2.111c.364.1.456.262.427.6-.02.228-.108.511.323.5.206,0,.281.24.34.424a1.6,1.6,0,0,1-1.019,2.018c-.128.045-.292.023-.353.2a8.737,8.737,0,0,1-1.992,3.106l1.224.484a5.918,5.918,0,0,1-7.852-.017L40.287,16a8.487,8.487,0,0,1-1.946-3.079c-.06-.179-.19-.187-.325-.231a1.572,1.572,0,0,1-1.091-1.931M52.591,24.235c.074.581.064.583-.544.583H42.99c-3.035,0-6.071-.006-9.106.008-.363,0-.5-.06-.449-.462a9.666,9.666,0,0,1,4.492-7.274.447.447,0,0,1,.646.054,6.831,6.831,0,0,0,8.916.036.5.5,0,0,1,.726-.031,9.615,9.615,0,0,1,4.376,7.086" transform="translate(-20.963 0)" fill="#ff8900"/></g></svg>