<svg xmlns="http://www.w3.org/2000/svg" width="33.933" height="37.871" viewBox="0 0 33.933 37.871"><g transform="translate(-3.029 -3.303)"><path d="M170.1,140.783V129.858c0-2.146,0-4.291-.005-6.437a.633.633,0,0,1,.346-.655q7.516-4.275,15.019-8.573c.066-.038.139-.063.208-.094.162.1.088.251.088.37q.007,8.456.008,16.912a.682.682,0,0,1-.361.71q-7.493,4.256-14.971,8.539c-.079.045-.166.077-.331.153" transform="translate(-148.808 -99.641)" fill="#2754ba"/><path d="M36.867,140.962c-1.61-.918-3.127-1.781-4.643-2.646-3.5-2-6.993-4-10.5-5.983a.9.9,0,0,1-.527-.911c.018-5.712.012-11.424.012-17.135.213-.072.341.08.484.162q7.377,4.208,14.75,8.423c.24.137.434.247.433.6-.014,5.79-.01,11.579-.01,17.491" transform="translate(-18.169 -99.788)" fill="#2754ba"/><path d="M32.411,31.932l4.217-2.408q5.448-3.114,10.894-6.233a.733.733,0,0,1,.846-.075q7.491,4.305,15,8.582c.067.038.127.089.232.164-1.626.928-3.229,1.841-4.83,2.756q-5.145,2.94-10.287,5.885a.732.732,0,0,1-.845.073q-7.491-4.305-15-8.58c-.067-.038-.126-.091-.225-.164" transform="translate(-28.007 -19.809)" fill="#4974d6"/></g></svg>