<svg xmlns="http://www.w3.org/2000/svg" xmlns:xlink="http://www.w3.org/1999/xlink" width="97.447" height="99.458" viewBox="0 0 97.447 99.458"><defs><clipPath id="a"><rect width="72.005" height="76.163" fill="none"/></clipPath><clipPath id="c"><path d="M4.344,36A31.659,31.659,0,1,1,36,67.662,31.659,31.659,0,0,1,4.344,36M36,0a36,36,0,1,0,36,36A36,36,0,0,0,36,0Z" transform="translate(0 -0.001)" fill="none"/></clipPath><linearGradient id="d" x1="0.129" y1="0.914" x2="0.135" y2="0.914" gradientUnits="objectBoundingBox"><stop offset="0" stop-color="#ffa100"/><stop offset="1" stop-color="#ffd800"/></linearGradient><clipPath id="f"><path d="M46.291,17.843v6.9h-9.38V33.1H52.6c-.551.654-.84,1.006-1.139,1.35q-6.878,7.916-13.746,15.842a5.557,5.557,0,0,0-1.477,2.345,21.471,21.471,0,0,0,.084,8.023H46.353v6.763H54.8c-.123-2.347-.234-4.479-.36-6.877H64.485V52.34h-16.1a4.548,4.548,0,0,1,.437-.962c4.649-5.348,9.337-10.662,13.942-16.047a8.854,8.854,0,0,0,1.917-3.352,17.286,17.286,0,0,0-.043-7.5H54.421V17.843Z" transform="translate(-35.903 -17.843)" fill="none"/></clipPath><linearGradient id="g" x1="-0.128" y1="1.354" x2="-0.117" y2="1.354" xlink:href="#d"/><clipPath id="i"><rect width="62.37" height="36.003" fill="none"/></clipPath></defs><g transform="translate(32.188) rotate(25)"><g clip-path="url(#a)"><g transform="translate(0 0)"><g clip-path="url(#a)"><path d="M72.005,42.972a36,36,0,1,1-36-36,36,36,0,0,1,36,36" transform="translate(0 -2.812)" fill="#e18a04"/><path d="M72.005,36A36,36,0,1,1,36,0a36,36,0,0,1,36,36" transform="translate(0 0)" fill="#e4a020"/><path d="M36,3.218a36,36,0,1,0,36,36,36,36,0,0,0-36-36m0,67.661A31.659,31.659,0,1,1,67.662,39.22,31.659,31.659,0,0,1,36,70.879" transform="translate(0 -1.299)" fill="#e18a04"/></g></g><g transform="translate(0 0.001)"><g clip-path="url(#c)"><rect width="97.027" height="97.027" transform="matrix(0.459, -0.888, 0.888, 0.459, -29.37, 56.825)" fill="url(#d)"/></g></g><g transform="translate(0 0)"><g clip-path="url(#a)"><path d="M48.388,56.34h16.1v8.209H54.441c.125,2.4.237,4.53.36,6.877H46.353V64.663H36.324a21.468,21.468,0,0,1-.084-8.023A5.549,5.549,0,0,1,37.718,54.3q6.844-7.947,13.746-15.843c.3-.344.588-.7,1.139-1.35H36.911V28.743H46.29v-6.9h8.132v6.635H64.64a17.278,17.278,0,0,1,.044,7.5,8.855,8.855,0,0,1-1.916,3.353c-4.606,5.384-9.294,10.7-13.942,16.046a4.548,4.548,0,0,0-.437.962" transform="translate(-14.488 -8.815)" fill="#e18a04"/></g></g><g transform="translate(21.415 10.643)"><g clip-path="url(#f)"><rect width="57.419" height="47.697" transform="translate(-19.11 40.776) rotate(-65.075)" fill="url(#g)"/></g></g><g transform="translate(0 0)"><g clip-path="url(#a)"><g transform="translate(4.818)" opacity="0.15" style="mix-blend-mode:overlay;isolation:isolate"><g clip-path="url(#i)"><path d="M39.262,36A35.988,35.988,0,0,0,70.447,18a36.013,36.013,0,0,0-62.37,0A35.988,35.988,0,0,0,39.262,36" transform="translate(-8.077 0)" fill="#fff"/></g></g></g></g></g></g></svg>