<svg xmlns="http://www.w3.org/2000/svg" xmlns:xlink="http://www.w3.org/1999/xlink" width="96.04" height="98.243" viewBox="0 0 96.04 98.243"><defs><clipPath id="a"><rect width="72.005" height="76.163" fill="none"/></clipPath><clipPath id="c"><path d="M4.344,36A31.659,31.659,0,1,1,36,67.662,31.659,31.659,0,0,1,4.344,36M36,0a36,36,0,1,0,36,36A36,36,0,0,0,36,0Z" fill="none"/></clipPath><linearGradient id="d" x1="0.129" y1="0.914" x2="0.135" y2="0.914" gradientUnits="objectBoundingBox"><stop offset="0" stop-color="#ffa100"/><stop offset="1" stop-color="#ffd800"/></linearGradient><clipPath id="f"><path d="M46.186,56.88c0-1.587-.008-3.174-.014-4.762q-.008-2.336-.016-4.672c0-.409,0-.411.419-.412,1.356,0,2.715-.05,4.068.011a21.553,21.553,0,0,1,3.464.37,4.637,4.637,0,0,1,3.869,5.442,4.412,4.412,0,0,1-3.228,3.764,7.828,7.828,0,0,1-2.057.393c-2.066.107-4.134.143-6.2.216h-.027c-.255,0-.276-.14-.276-.352m-.123-16.593c.008-1.325,0-2.651-.008-3.976s0-2.631-.02-3.947c0-.291.063-.408.382-.4,1.5.032,2.994,0,4.486.072a6.971,6.971,0,0,1,3.325.93,3.64,3.64,0,0,1,1.715,3.708,3.721,3.721,0,0,1-1.473,2.839,4.866,4.866,0,0,1-2.274.874,25.014,25.014,0,0,1-2.513.235c-.662.026-1.325.024-1.987.023-.422,0-.844,0-1.266,0h-.017c-.258,0-.351-.086-.349-.361m7.227-19.224c-1.095.018-2.19.014-3.285.018-.411,0-.418.01-.417.426,0,1.538.006,3.075.02,4.612,0,.255-.065.357-.338.354-.844-.011-1.688.005-2.532.01-.447,0-.447,0-.448-.438q-.009-2.321-.018-4.642c0-.143.046-.315-.2-.314-1.155.008-2.311.016-3.466.008-.287,0-.346.118-.344.38.016,1.538.016,3.075.021,4.612,0,.407,0,.409-.413.41l-8.018.029c-.409,0-.413.006-.412.4,0,1.568.018,3.135.01,4.7,0,.308.1.4.4.392,1.205-.017,2.412-.014,3.618-.018.842,0,1.143.29,1.154,1.139.009.773.007,1.546.01,2.32l.059,16.579c0,1.335-.011,2.672.013,4.008.016.852-.293,1.205-1.143,1.209-1.2.007-2.411.019-3.616.011-.295,0-.405.076-.4.39q.03,2.382.017,4.762c0,.292.087.373.38.37,2.663-.02,5.325-.026,7.988-.035.486,0,.486,0,.487.5.005,1.437.017,2.874.01,4.311,0,.287.08.385.373.379,1.064-.018,2.129-.014,3.194-.016.447,0,.447,0,.446-.457-.005-1.457,0-2.914-.021-4.371,0-.282.091-.366.36-.364.874,0,1.749,0,2.623-.022.276-.008.336.089.336.347,0,1.477.01,2.954.017,4.431,0,.425,0,.423.441.421q1.568-.008,3.135-.011c.467,0,.467,0,.465-.484-.005-1.517-.007-3.035-.02-4.552,0-.251.05-.385.331-.415.528-.055,1.052-.144,1.578-.223a15,15,0,0,0,4.147-1.276A9.27,9.27,0,0,0,65.4,53.976a8.631,8.631,0,0,0-.471-4.876,9.211,9.211,0,0,0-5.3-5.187c-.413-.171-.836-.318-1.269-.481.392-.207.77-.388,1.13-.6a7.688,7.688,0,0,0,3.449-4.244,8.79,8.79,0,0,0,.4-3.443,7.7,7.7,0,0,0-1.25-3.842,9.862,9.862,0,0,0-7.989-4.55c-.448-.032-.45-.023-.452-.49-.006-1.618-.016-3.235-.013-4.853,0-.252-.069-.346-.326-.346h-.017" transform="translate(-33.438 -21.063)" fill="none"/></clipPath><linearGradient id="g" x1="-0.139" y1="1.301" x2="-0.129" y2="1.301" xlink:href="#d"/><clipPath id="i"><rect width="62.37" height="36.003" fill="none"/></clipPath></defs><g transform="matrix(0.921, -0.391, 0.391, 0.921, 0, 28.135)"><g clip-path="url(#a)"><g transform="translate(0 0)"><g clip-path="url(#a)"><path d="M72.005,42.972a36,36,0,1,1-36-36,36,36,0,0,1,36,36" transform="translate(0 -2.812)" fill="#e18a04"/><path d="M72.005,36A36,36,0,1,1,36,0a36,36,0,0,1,36,36" transform="translate(0 0)" fill="#e4a020"/><path d="M36,3.217a36,36,0,1,0,36,36,36,36,0,0,0-36-36m0,67.662A31.659,31.659,0,1,1,67.662,39.22,31.659,31.659,0,0,1,36,70.879" transform="translate(0 -1.298)" fill="#e18a04"/></g></g><g clip-path="url(#c)"><rect width="97.028" height="97.028" transform="matrix(0.459, -0.888, 0.888, 0.459, -29.37, 56.825)" fill="url(#d)"/></g><g transform="translate(0 0)"><g clip-path="url(#a)"><path d="M58.356,47.185c.434.163.857.31,1.27.481a9.21,9.21,0,0,1,5.3,5.187A8.641,8.641,0,0,1,65.4,57.73,9.273,9.273,0,0,1,59.826,64.7a14.992,14.992,0,0,1-4.148,1.276c-.525.079-1.049.168-1.577.224-.281.029-.334.163-.332.415.014,1.517.016,3.034.021,4.552,0,.484,0,.483-.465.484l-3.135.011c-.438,0-.439,0-.441-.421-.008-1.477-.02-2.954-.017-4.431,0-.256-.061-.354-.336-.347-.873.023-1.748.027-2.622.023-.27,0-.363.082-.36.364.018,1.457.016,2.914.021,4.37,0,.46,0,.456-.446.457-1.065,0-2.129,0-3.194.016-.293.005-.375-.092-.373-.379.008-1.437,0-2.874-.009-4.311,0-.5,0-.5-.487-.5-2.663.01-5.326.014-7.988.035-.293,0-.381-.079-.38-.37q.01-2.382-.018-4.762c0-.314.107-.392.4-.391,1.205.008,2.411,0,3.616-.011.85,0,1.158-.358,1.143-1.21-.023-1.335-.008-2.672-.013-4.008q-.029-8.289-.058-16.579c0-.773,0-1.547-.01-2.32-.01-.849-.312-1.142-1.154-1.139-1.205,0-2.412,0-3.617.018-.3,0-.4-.085-.4-.392.008-1.568-.005-3.135-.01-4.7,0-.39,0-.394.412-.4l8.018-.029c.414,0,.415,0,.413-.41-.005-1.538-.005-3.075-.021-4.612,0-.262.056-.382.344-.381,1.155.008,2.311,0,3.465-.008.249,0,.2.172.2.314q.012,2.321.018,4.642c0,.438,0,.44.449.437.844,0,1.688-.02,2.531-.01.273,0,.34-.1.338-.353-.014-1.537-.016-3.075-.02-4.612,0-.417.007-.425.418-.426,1.1,0,2.19,0,3.285-.018.272,0,.344.088.343.345,0,1.618.007,3.235.013,4.853,0,.467,0,.459.452.49a9.862,9.862,0,0,1,7.989,4.551,7.707,7.707,0,0,1,1.25,3.842,8.79,8.79,0,0,1-.4,3.443,7.688,7.688,0,0,1-3.449,4.244c-.36.212-.739.393-1.131.6M46.171,55.871c.005,1.588.013,3.175.014,4.762,0,.219.023.361.3.351,2.067-.073,4.135-.109,6.2-.216a7.832,7.832,0,0,0,2.058-.392,4.412,4.412,0,0,0,3.227-3.765A4.637,4.637,0,0,0,54.1,51.17a21.472,21.472,0,0,0-3.463-.37c-1.354-.06-2.712-.013-4.069-.011-.419,0-.42,0-.419.411q.007,2.335.017,4.672m-.118-15.807c0,1.325.016,2.651.008,3.977,0,.28.095.364.366.36,1.084-.016,2.171.016,3.253-.027a24.636,24.636,0,0,0,2.513-.235,4.86,4.86,0,0,0,2.275-.874,3.719,3.719,0,0,0,1.472-2.839,3.638,3.638,0,0,0-1.714-3.708,6.969,6.969,0,0,0-3.325-.93c-1.493-.075-2.991-.039-4.486-.072-.319-.007-.385.111-.382.4.017,1.315.015,2.631.02,3.946" transform="translate(-13.493 -10.014)" fill="#e18a04"/></g></g><g transform="translate(19.945 12.563)"><g clip-path="url(#f)"><rect width="56.443" height="50.104" transform="matrix(0.456, -0.89, 0.89, 0.456, -19.029, 37.133)" fill="url(#g)"/></g></g><g transform="translate(0 0)"><g clip-path="url(#a)"><g transform="translate(4.818)" opacity="0.15" style="mix-blend-mode:overlay;isolation:isolate"><g clip-path="url(#i)"><path d="M39.262,36A35.988,35.988,0,0,0,70.447,18a36.013,36.013,0,0,0-62.37,0A35.988,35.988,0,0,0,39.262,36" transform="translate(-8.077 0)" fill="#fff"/></g></g></g></g></g></g></svg>