<svg xmlns="http://www.w3.org/2000/svg" xmlns:xlink="http://www.w3.org/1999/xlink" width="98.734" height="100.551" viewBox="0 0 98.734 100.551"><defs><clipPath id="a"><rect width="72.005" height="76.163" fill="none"/></clipPath><clipPath id="c"><path d="M4.344,36A31.659,31.659,0,1,1,36,67.662,31.659,31.659,0,0,1,4.344,36M36,0a36,36,0,1,0,36,36A36,36,0,0,0,36,0Z" transform="translate(0 -0.001)" fill="none"/></clipPath><linearGradient id="d" x1="0.129" y1="0.914" x2="0.135" y2="0.914" gradientUnits="objectBoundingBox"><stop offset="0" stop-color="#ffa100"/><stop offset="1" stop-color="#ffd800"/></linearGradient><clipPath id="f"><path d="M39.109,21.3a5.734,5.734,0,0,0-.348.626,5.258,5.258,0,0,0-.5,2.086,5.488,5.488,0,0,0,.217,1.6,4.36,4.36,0,0,1,.141,1.424,5.077,5.077,0,0,1-.567,1.868,7.856,7.856,0,0,1-1.235,1.706,9.514,9.514,0,0,1-.833.777,5.751,5.751,0,0,1-1.11.834c-.284.15-.569.3-.866.423s-.629.209-.942.316a8.06,8.06,0,0,1-2.169.385c-.231.012-.463.034-.694.043-.183.007-.366.01-.548,0-.446-.025-.892-.059-1.337-.088-.224-.014-.446-.027-.67-.044-.189-.014-.379-.044-.569-.047a10.971,10.971,0,0,0-1.692.035c-.344.048-.693.069-1.034.134a12.246,12.246,0,0,0-1.842.511A11.73,11.73,0,0,0,19.44,35.6a10.719,10.719,0,0,0-2.917,3.44,10.951,10.951,0,0,0-.867,2.083c-.086.294-.144.6-.223.889a9.63,9.63,0,0,0-.253,2.118c-.017.4.022.8.045,1.193a4.085,4.085,0,0,0,.066.517,14.631,14.631,0,0,0,.355,1.55,10.9,10.9,0,0,0,1.5,3.146,11.348,11.348,0,0,0,1.614,1.845,11.493,11.493,0,0,0,2.73,1.841,6.307,6.307,0,0,0,.686.293,13.591,13.591,0,0,0,1.5.448,10.379,10.379,0,0,0,1.718.262,11.358,11.358,0,0,0,3.07-.208,12.959,12.959,0,0,0,1.458-.416,9.9,9.9,0,0,0,1.932-.91,9.626,9.626,0,0,0,1.389-.96,8.652,8.652,0,0,1,1.841-1.219,9.623,9.623,0,0,1,1.832-.694,11.713,11.713,0,0,1,3.069-.42c.456,0,.912.018,1.367.051.388.027.775.074,1.159.134a14.545,14.545,0,0,1,4.137,1.365,9.552,9.552,0,0,1,2.913,2.206,4.78,4.78,0,0,1,.835,1.287c.2.489.375.99.572,1.482a5.549,5.549,0,0,0,.364.787,7.711,7.711,0,0,0,1.137,1.565,15.054,15.054,0,0,0,1.138,1.034,7,7,0,0,0,1.584.926,6.824,6.824,0,0,0,1.458.49c.342.066.683.141,1.028.179a8.282,8.282,0,0,0,1.068.047,6.871,6.871,0,0,0,.938-.089,8.469,8.469,0,0,0,1.143-.232,7.907,7.907,0,0,0,1.94-.83c.329-.206.666-.405.978-.636a7.031,7.031,0,0,0,.705-.629,7.556,7.556,0,0,0,.979-1.122A8.866,8.866,0,0,0,66.494,56.4a7.744,7.744,0,0,0,.475-2.456,11.886,11.886,0,0,0-.047-1.192,6.284,6.284,0,0,0-.133-.908,8.5,8.5,0,0,0-.489-1.513,8.731,8.731,0,0,0-.913-1.59,7.444,7.444,0,0,0-1.188-1.3,9.229,9.229,0,0,0-1.178-.864,8.622,8.622,0,0,0-1.665-.766,8.152,8.152,0,0,0-2.638-.432,9.277,9.277,0,0,0-1.238.092,7.089,7.089,0,0,0-1.7.445,11.68,11.68,0,0,0-1.191.566,5.677,5.677,0,0,0-.56.363,10,10,0,0,1-1.74,1.044,9.162,9.162,0,0,1-1.749.554,10.317,10.317,0,0,1-1.751.211,11.488,11.488,0,0,1-2.185-.094c-.449-.077-.9-.141-1.344-.24-.387-.086-.767-.208-1.147-.323a8.619,8.619,0,0,1-.848-.285,13.176,13.176,0,0,1-1.693-.833,11.8,11.8,0,0,1-1.819-1.335c-.5-.452-.942-.954-1.393-1.45A4.394,4.394,0,0,1,38,43.652c-.174-.25-.338-.509-.5-.768a6.753,6.753,0,0,1-.842-2.038,9.729,9.729,0,0,1-.234-1.494c-.044-.571-.047-1.145-.06-1.717a7.576,7.576,0,0,1,.2-1.974c.1-.419.229-.831.344-1.246a4.938,4.938,0,0,1,.521-1.2c.249-.42.517-.83.8-1.229.215-.3.459-.588.7-.873a3.769,3.769,0,0,1,.459-.486,6.268,6.268,0,0,1,1.393-.858,4.891,4.891,0,0,1,2.024-.45c.154,0,.308.007.461.015a4.056,4.056,0,0,0,.78-.007,6.557,6.557,0,0,0,1.3-.316,5.4,5.4,0,0,0,1.33-.718c.028-.019.055-.041.082-.061A5.311,5.311,0,1,0,39.109,21.3" transform="translate(-15.176 -18.507)" fill="none"/></clipPath><linearGradient id="g" x1="-0.07" y1="1.165" x2="-0.06" y2="1.165" xlink:href="#d"/><clipPath id="i"><rect width="62.37" height="36.003" fill="none"/></clipPath></defs><g transform="matrix(0.891, 0.454, -0.454, 0.891, 34.577, 0)"><g clip-path="url(#a)"><g transform="translate(0 0)"><g clip-path="url(#a)"><path d="M72.005,42.973a36,36,0,1,1-36-36,36,36,0,0,1,36,36" transform="translate(0 -2.813)" fill="#e18a04"/><path d="M72.005,36A36,36,0,1,1,36,0a36,36,0,0,1,36,36" transform="translate(0 0)" fill="#e4a020"/><path d="M36,3.218a36,36,0,1,0,36,36,36,36,0,0,0-36-36m0,67.661A31.659,31.659,0,1,1,67.662,39.22,31.659,31.659,0,0,1,36,70.879" transform="translate(0 -1.299)" fill="#e18a04"/></g></g><g transform="translate(0 0.001)"><g clip-path="url(#c)"><rect width="97.027" height="97.027" transform="translate(-29.37 56.825) rotate(-62.668)" fill="url(#d)"/></g></g><g transform="translate(0 0)"><g clip-path="url(#a)"><path d="M66.923,55.751a6.462,6.462,0,0,0-.133-.908A8.5,8.5,0,0,0,66.3,53.33a8.681,8.681,0,0,0-.913-1.59,7.462,7.462,0,0,0-1.188-1.3,9.136,9.136,0,0,0-1.178-.865,8.641,8.641,0,0,0-1.665-.766,8.163,8.163,0,0,0-2.638-.432,9.479,9.479,0,0,0-1.238.092,7.1,7.1,0,0,0-1.7.446,11.681,11.681,0,0,0-1.191.566,5.641,5.641,0,0,0-.56.363,9.97,9.97,0,0,1-1.74,1.044,9.193,9.193,0,0,1-1.749.555,10.317,10.317,0,0,1-1.751.211,11.538,11.538,0,0,1-2.185-.094c-.449-.076-.9-.141-1.344-.24-.388-.086-.767-.208-1.148-.323a8.518,8.518,0,0,1-.848-.285,13.054,13.054,0,0,1-1.692-.833,11.779,11.779,0,0,1-1.819-1.335c-.5-.452-.942-.954-1.393-1.449A4.463,4.463,0,0,1,38,46.653c-.175-.251-.338-.509-.5-.769a6.756,6.756,0,0,1-.842-2.038,9.883,9.883,0,0,1-.235-1.5c-.044-.57-.046-1.144-.06-1.716a7.576,7.576,0,0,1,.2-1.974c.1-.419.228-.831.344-1.247a4.981,4.981,0,0,1,.521-1.2c.249-.419.517-.83.8-1.229.215-.3.459-.588.7-.873a3.769,3.769,0,0,1,.459-.486,6.29,6.29,0,0,1,1.393-.858,4.9,4.9,0,0,1,2.024-.45,10.008,10.008,0,0,0,1.241.008,6.552,6.552,0,0,0,1.3-.316,5.422,5.422,0,0,0,1.329-.717c.028-.02.055-.041.082-.061A5.311,5.311,0,1,0,39.109,24.3a5.722,5.722,0,0,0-.348.625,5.262,5.262,0,0,0-.5,2.086,5.5,5.5,0,0,0,.217,1.6,4.361,4.361,0,0,1,.142,1.424,5.074,5.074,0,0,1-.567,1.868,7.788,7.788,0,0,1-1.235,1.706,9.526,9.526,0,0,1-.833.777,5.772,5.772,0,0,1-1.11.833,9.522,9.522,0,0,1-.866.423c-.306.125-.629.21-.942.316a8.082,8.082,0,0,1-2.169.385c-.231.013-.462.034-.694.043-.183.007-.366.01-.548,0-.446-.025-.892-.058-1.338-.088-.223-.015-.447-.027-.669-.044-.19-.014-.379-.045-.57-.047a10.965,10.965,0,0,0-1.691.034c-.344.048-.693.069-1.034.134a12.337,12.337,0,0,0-1.842.511A11.761,11.761,0,0,0,19.44,38.6a10.717,10.717,0,0,0-2.917,3.44,10.928,10.928,0,0,0-.867,2.083c-.086.295-.145.6-.224.89a9.625,9.625,0,0,0-.253,2.117c-.017.4.022.8.045,1.193a4.192,4.192,0,0,0,.066.518,14.769,14.769,0,0,0,.355,1.549,10.876,10.876,0,0,0,1.5,3.146,11.106,11.106,0,0,0,4.344,3.687,6.134,6.134,0,0,0,.685.293,13.553,13.553,0,0,0,1.5.448,10.38,10.38,0,0,0,1.718.262,11.381,11.381,0,0,0,3.07-.208,12.763,12.763,0,0,0,1.458-.415,9.917,9.917,0,0,0,1.932-.91,9.63,9.63,0,0,0,1.389-.961,8.649,8.649,0,0,1,1.841-1.218,9.625,9.625,0,0,1,1.832-.695,11.713,11.713,0,0,1,3.069-.42c.456,0,.912.018,1.367.051.388.027.775.075,1.159.134a14.561,14.561,0,0,1,4.137,1.365,9.566,9.566,0,0,1,2.912,2.206,4.783,4.783,0,0,1,.835,1.287c.2.489.375.99.572,1.481a5.487,5.487,0,0,0,.365.787,7.731,7.731,0,0,0,1.137,1.565,15.307,15.307,0,0,0,1.138,1.035,7,7,0,0,0,1.584.926,6.84,6.84,0,0,0,1.459.49c.341.066.683.141,1.028.179a8.4,8.4,0,0,0,1.068.048,6.889,6.889,0,0,0,.939-.09,8.571,8.571,0,0,0,1.142-.231,7.92,7.92,0,0,0,1.94-.83c.329-.207.666-.406.978-.636a7.1,7.1,0,0,0,.706-.628,7.556,7.556,0,0,0,.979-1.123A8.82,8.82,0,0,0,66.495,59.4a7.737,7.737,0,0,0,.475-2.455,11.7,11.7,0,0,0-.046-1.192" transform="translate(-6.124 -8.679)" fill="#e18a04"/></g></g><g transform="translate(9.052 11.039)"><g clip-path="url(#f)"><rect width="61.338" height="65.359" transform="translate(-16.713 35.627) rotate(-64.885)" fill="url(#g)"/></g></g><g transform="translate(0 0)"><g clip-path="url(#a)"><g transform="translate(4.818)" opacity="0.15" style="mix-blend-mode:overlay;isolation:isolate"><g clip-path="url(#i)"><path d="M39.262,36A35.988,35.988,0,0,0,70.447,18a36.013,36.013,0,0,0-62.37,0A35.988,35.988,0,0,0,39.262,36" transform="translate(-8.077 0)" fill="#fff"/></g></g></g></g></g></g></svg>