<svg xmlns="http://www.w3.org/2000/svg" xmlns:xlink="http://www.w3.org/1999/xlink" width="10.509" height="11.885" viewBox="0 0 10.509 11.885"><defs><clipPath id="a"><rect width="10.509" height="11.885" fill="none"/></clipPath></defs><g clip-path="url(#a)"><path d="M10.506,5.927c0,.906,0,1.813,0,2.719a.455.455,0,0,1-.257.442q-2.4,1.363-4.786,2.735a.394.394,0,0,1-.427,0Q2.66,10.457.278,9.1A.489.489,0,0,1,0,8.622Q.009,5.9,0,3.184A.4.4,0,0,1,.22,2.8Q2.6,1.445,4.981.082a.5.5,0,0,1,.553,0Q7.9,1.45,10.283,2.8a.407.407,0,0,1,.225.393c0,.912,0,1.823,0,2.735" transform="translate(0 0)"/><path d="M170.094,121.265v-2.934c0-.576,0-1.153,0-1.729a.17.17,0,0,1,.093-.176q2.019-1.148,4.034-2.3c.018-.01.037-.017.056-.025.044.027.024.067.024.1q0,2.271,0,4.542a.183.183,0,0,1-.1.191q-2.012,1.143-4.021,2.293c-.021.012-.045.021-.089.041" transform="translate(-164.492 -110.342)" fill="#ffd800"/><path d="M25.406,121.436l-1.247-.711c-.94-.536-1.878-1.074-2.82-1.607a.241.241,0,0,1-.142-.245c0-1.534,0-3.068,0-4.6.057-.019.092.022.13.043l3.961,2.262c.064.037.116.066.116.161,0,1.555,0,3.11,0,4.7" transform="translate(-20.5 -110.505)" fill="#ffd800"/><path d="M32.411,25.48l1.132-.647Q35.007,24,36.469,23.16a.2.2,0,0,1,.227-.02q2.012,1.156,4.028,2.3c.018.01.034.024.062.044l-1.3.74q-1.382.79-2.763,1.58a.2.2,0,0,1-.227.02q-2.012-1.156-4.029-2.3c-.018-.01-.034-.024-.06-.044" transform="translate(-31.344 -22.351)" fill="#ff8900"/></g></svg>