<svg xmlns="http://www.w3.org/2000/svg" xmlns:xlink="http://www.w3.org/1999/xlink" width="49.393" height="49.409" viewBox="0 0 49.393 49.409"><defs><clipPath id="a"><rect width="49.393" height="49.409" fill="#ff8900"/></clipPath></defs><g clip-path="url(#a)"><path d="M530.9,623.127a.126.126,0,0,0,.1.038l-.1-.038" transform="translate(-488.932 -573.87)" fill="#ff8900"/><path d="M44.277,51.665a6.976,6.976,0,0,0,2.442-1.058,5.931,5.931,0,0,0,1.822-7.49,5.857,5.857,0,0,0-6.822-3.089,5.056,5.056,0,0,0-1.762.857c-.62.46-.619.452-1.23.021-2.5-1.763-4.978-3.565-7.483-5.325-.4-.279-.8-.555-1.18-.856a.553.553,0,0,1-.206-.75,8.868,8.868,0,0,0-.479-8.245c-.462-.791-.472-.786.16-1.418q4.963-4.965,9.928-9.927c.737-.737.6-.641,1.4-.251a5.805,5.805,0,0,0,6.722-1.327,5.921,5.921,0,0,0,.1-8.011A5.86,5.86,0,0,0,43.074,2.76a6.014,6.014,0,0,0-5.31,3.553,5.879,5.879,0,0,0-.33,3.739,6.553,6.553,0,0,0,.456,1.173c.287.637.3.636-.209,1.144q-2.854,2.863-5.716,5.718-2.245,2.245-4.491,4.489c-.486.484-.492.479-1.06.119A8.489,8.489,0,0,0,21.522,21.3a8.868,8.868,0,0,0-7.528,4.252c-.022.033-.043.066-.064.1-.342.555-.429.595-1.056.374-.818-.287-1.646-.546-2.466-.828-1.28-.44-2.567-.86-3.85-1.289a1.242,1.242,0,0,1-.873-.8A2.765,2.765,0,0,0,3.063,21.3,2.858,2.858,0,0,0,.4,23.175c-.07.176-.079.448-.4.373v1.1a5.331,5.331,0,0,0,.767,1.535,3.017,3.017,0,0,0,4.015.505.632.632,0,0,1,.675-.123c2.151.73,4.309,1.44,6.462,2.166.666.225.569.124.5.778a8.889,8.889,0,0,0,1.217,5.52,9.2,9.2,0,0,0,9.034,4.487,8.957,8.957,0,0,0,5.234-2.414c.18-.166.29-.167.492-.022q4.127,2.961,8.268,5.9c.79.562.789.555.566,1.465a6.054,6.054,0,0,0,2.966,6.7,5.445,5.445,0,0,0,1.766.646,2.273,2.273,0,0,1,.954.153h1.026c-.032-.259.179-.247.331-.285" transform="translate(0 -2.542)" fill="#ff8900"/><path d="M47.611,47.567a6.112,6.112,0,0,0-8.016-9.207c-.143.109-.261.22-.477.064q-4.379-3.151-8.78-6.27c-.349-.246-.4-.414-.24-.808a8.877,8.877,0,0,0-.775-8.608c-.144-.227-.137-.34.05-.523.817-.8,1.619-1.614,2.427-2.422q4.069-4.069,8.135-8.141a.341.341,0,0,1,.5-.073,5.055,5.055,0,0,0,1.3.559,6.1,6.1,0,0,0,7.625-5.384,5.9,5.9,0,0,0-2.757-5.7A5.912,5.912,0,0,0,40.454.689a5.984,5.984,0,0,0-2.68,8.178.5.5,0,0,1-.122.722Q32.4,14.818,27.175,20.071c-.184.185-.294.157-.491.025a8.788,8.788,0,0,0-6.5-1.426,8.923,8.923,0,0,0-6.429,4.374.535.535,0,0,1-.775.275c-1.962-.677-3.921-1.363-5.9-1.971a2.007,2.007,0,0,1-1.4-1.222,3.009,3.009,0,0,0-4.891-.551A9.626,9.626,0,0,0,0,21.007c.318.075.326-.2.4-.373a2.858,2.858,0,0,1,2.666-1.877,2.765,2.765,0,0,1,2.621,1.81,1.241,1.241,0,0,0,.873.8c1.283.429,2.57.849,3.85,1.289.82.282,1.648.541,2.466.828.628.22.714.181,1.057-.374.021-.034.042-.067.064-.1a8.868,8.868,0,0,1,7.528-4.253,8.488,8.488,0,0,1,4.892,1.392c.568.36.573.365,1.06-.119q2.249-2.241,4.491-4.489,2.858-2.859,5.716-5.718c.506-.508.5-.507.209-1.144a6.569,6.569,0,0,1-.456-1.173,5.88,5.88,0,0,1,.33-3.739A6.014,6.014,0,0,1,43.074.218a5.86,5.86,0,0,1,4.609,2.035,5.921,5.921,0,0,1-.1,8.011,5.805,5.805,0,0,1-6.722,1.327c-.8-.39-.658-.486-1.4.251Q34.5,16.8,29.539,21.77c-.632.632-.622.627-.16,1.418a8.869,8.869,0,0,1,.479,8.245.553.553,0,0,0,.206.75c.382.3.783.577,1.18.856,2.5,1.761,4.98,3.562,7.483,5.325.611.43.61.438,1.23-.021a5.054,5.054,0,0,1,1.762-.857,5.857,5.857,0,0,1,6.822,3.089,5.931,5.931,0,0,1-1.822,7.49,6.973,6.973,0,0,1-2.442,1.059c-.153.038-.363.026-.331.285.082-.083.194-.072.295-.09a5.981,5.981,0,0,0,3.37-1.752" transform="translate(0 0)" fill="#ff8900"/><path d="M535.676,624.243h.552a4,4,0,0,0-.578-.07.231.231,0,0,1,.026.07" transform="translate(-493.308 -574.834)" fill="#ff8900"/><path d="M530.9,623.112l.1.038c.1,0,.217-.055.276.045a3.989,3.989,0,0,1,.578.07,2.273,2.273,0,0,0-.954-.153" transform="translate(-488.932 -573.855)" fill="#ff8900"/><path d="M533.42,624.085l.2.077a.229.229,0,0,0-.026-.07c-.059,0-.117-.006-.176-.007" transform="translate(-491.254 -574.753)" fill="#ff8900"/><path d="M532.431,623.472c-.06-.1-.178-.045-.276-.045l.1.038c.059,0,.118,0,.176.007" transform="translate(-490.09 -574.133)" fill="#ff8900"/></g></svg>